<svg width="1574" height="347" viewBox="0 0 1574 347" fill="none" xmlns="http://www.w3.org/2000/svg">
<g clip-path="url(#clip0_11_532)">
<rect x="18.553" y="0.319824" width="1569.12" height="140.236" transform="rotate(7.6024 18.553 0.319824)" fill="#110F0F"/>
<path d="M225.075 87.8088L237.079 89.3192C241.527 89.9129 243.743 90.2699 243.727 90.3901C244.778 82.5158 245.665 76.7914 246.386 73.2169C247.108 69.6424 247.477 67.7951 247.493 67.6749C247.509 67.5546 247.97 67.3102 248.876 66.9417C249.842 66.5812 251.134 66.2948 252.753 66.0826C254.38 65.8104 255.735 65.7464 256.816 65.8908C257.959 66.0433 258.514 66.2397 258.481 66.4801C256.641 75.228 255.051 84.621 253.711 94.6593C252.379 104.637 251.689 112.101 251.64 117.05C251.591 121.999 252.452 125.632 254.223 127.949C254.207 128.069 253.867 128.329 253.201 128.73C252.596 129.139 251.168 129.529 248.915 129.901C246.723 130.282 244.695 130.348 242.832 130.099L241.774 129.774C240.785 128.48 240.286 126.027 240.278 122.417C240.339 118.754 241.105 111.178 242.578 99.689C241.564 99.4925 238.292 99.0252 232.762 98.2871C227.292 97.5571 224.274 97.2461 223.709 97.3542C223.425 99.0292 222.897 102.752 222.127 108.523C221.365 114.233 220.967 119.044 220.935 122.955C220.847 123.616 219.813 124.029 217.833 124.193C215.845 124.417 214.01 124.417 212.327 124.192C210.704 123.975 209.736 123.663 209.424 123.254C209.163 122.913 209.747 117.393 211.175 106.694L212.595 96.0543C211.91 95.2287 211.193 93.7258 210.444 91.5457C209.695 89.3656 209.408 87.6144 209.585 86.292C209.609 86.1116 211.094 86.218 214.039 86.6111C214.669 82.3514 215.353 77.4565 216.091 71.9264L216.344 70.033C215.166 66.9391 214.765 63.9796 215.143 61.1545C215.175 60.9141 215.225 60.7678 215.293 60.7157C215.662 60.7037 215.996 60.7178 216.297 60.7579C216.597 60.798 217.258 60.8863 218.28 61.0227C219.362 61.1671 220.837 61.578 222.704 62.2555C224.58 62.8729 226.056 63.4983 227.134 64.1316C228.212 64.7649 228.731 65.2318 228.691 65.5324C227.877 68.4216 226.752 75.246 225.316 86.0056L225.075 87.8088ZM283.335 128.072L283.497 126.166L283.431 125.974C281.692 128.005 279.622 129.534 277.221 130.559C274.881 131.593 272.659 131.969 270.555 131.688C264.243 130.846 261.291 125.466 261.697 115.548C261.785 113.969 262.262 109.933 263.129 103.441C263.995 96.9497 264.779 93.1388 265.481 92.0088C267.212 90.9551 269.821 90.6609 273.307 91.1262C274.69 91.3108 275.511 91.5734 275.772 91.914C275.764 91.9741 275.625 92.7816 275.357 94.3364C274.446 98.8646 273.827 102.361 273.498 104.825C273.169 107.29 272.954 109.127 272.854 110.337C272.761 111.488 272.691 112.243 272.643 112.604C272.663 112.912 272.677 113.495 272.685 114.353C272.753 115.218 272.897 115.972 273.117 116.613C273.786 118.477 275.053 119.533 276.916 119.781C278.84 120.038 280.647 119.331 282.338 117.66C284.098 115.937 285 114.681 285.044 113.892L285.453 110.826C286.921 99.8261 287.892 93.9294 288.365 93.136C288.737 92.6351 289.745 92.1884 291.388 91.7959C293.092 91.4114 294.725 91.3235 296.287 91.5321C297.85 91.7407 298.736 91.9812 298.944 92.2538L298.198 96.4674C296.69 105.015 295.624 111.633 294.998 116.321C294.372 121.01 294.095 124.001 294.167 125.296C294.187 128.357 294.677 130.87 295.639 132.834C295.558 133.435 294.198 134.232 291.557 135.226C288.916 136.219 286.724 136.6 284.981 136.367C284.5 136.303 284.079 135.329 283.719 133.445C283.358 131.562 283.23 129.771 283.335 128.072ZM303.148 122.824L305.705 101.599C306.219 97.7521 306.646 95.6983 306.986 95.4379C307.796 94.873 308.988 94.4203 310.563 94.0799C312.146 93.6794 313.629 93.5714 315.011 93.7559C316.394 93.9404 317.069 94.1529 317.037 94.3933C316.444 97.0061 316.055 99.0037 315.87 100.386C315.686 101.769 315.653 102.468 315.774 102.484C315.894 102.5 316.09 102.404 316.363 102.196C316.643 101.927 317.12 101.563 317.794 101.102C318.535 100.589 319.811 99.964 321.623 99.2268C323.502 98.4376 325.164 98.1393 326.606 98.3319C330.513 98.8534 333.226 100.99 334.744 104.741C338.812 100.389 342.92 98.4904 347.068 99.0439C350.794 99.5414 353.257 101.491 354.454 104.894C355.664 108.665 356.183 112.344 356.01 115.93C355.681 121.148 355.147 126.522 354.409 132.052L352.64 142.553C352.584 142.973 351.54 143.232 349.508 143.328C347.468 143.484 345.847 143.481 344.645 143.321L341.82 142.485C343.276 136.623 344.248 131.858 344.737 128.191C345.227 124.525 345.516 121.902 345.604 120.323C345.761 118.692 345.763 117.071 345.611 115.46C345.467 113.789 345.048 112.571 344.355 111.805C343.73 110.987 342.846 110.502 341.704 110.35C340.562 110.198 339.496 110.392 338.506 110.933C337.524 111.413 336.783 111.926 336.282 112.471C335.841 113.024 335.609 113.391 335.585 113.571C335.508 115.519 335.005 119.979 334.074 126.951L332.763 134.026C332.698 134.507 331.681 134.8 329.709 134.904C327.737 135.007 326.15 134.979 324.948 134.819L322.123 133.983C323.314 129.186 324.19 124.684 324.752 120.476C325.321 116.209 325.478 113.201 325.222 111.454C325.034 109.654 323.978 108.626 322.054 108.37C320.131 108.113 318.38 108.858 316.8 110.605C315.221 112.352 314.364 113.737 314.227 114.758L313.974 116.652L312.789 126.221C312.003 132.112 311.469 135.192 311.189 135.46C309.494 136.702 306.242 137.002 301.433 136.36C300.952 136.296 300.723 136.174 300.748 135.994C301.513 133.465 302.313 129.075 303.148 122.824ZM396.211 126.16C395.209 133.673 394.713 138.073 394.725 139.36C394.765 142.73 395.469 145.241 396.84 146.892C396.752 147.553 395.417 148.385 392.836 149.386C390.315 150.396 388.093 150.772 386.17 150.515C385.629 150.443 385.166 149.555 384.781 147.852C384.389 146.209 384.185 144.989 384.169 144.191C384.213 143.402 384.205 143.003 384.145 142.995L383.85 143.139C380.328 145.239 376.432 146.004 372.165 145.434C367.897 144.864 364.727 143.401 362.656 141.045C360.652 138.636 359.875 135.748 360.325 132.382C360.774 129.016 361.872 126.287 363.62 124.196C365.435 122.052 367.415 120.512 369.559 119.574C371.703 118.637 374.026 117.968 376.526 117.567C380.354 116.855 383.319 116.639 385.423 116.919L385.615 116.853C386.008 113.908 382.478 111.938 375.025 110.943C372.079 110.55 369.869 110.377 368.394 110.425L368.304 110.413C368.465 109.211 369.026 107.756 369.988 106.049C371.01 104.35 371.798 103.262 372.351 102.786C372.964 102.317 375.164 102.335 378.951 102.841C385.803 103.755 390.676 105.752 393.569 108.83C396.47 111.848 397.555 116.091 396.825 121.561L396.211 126.16ZM385.433 130.594L385.89 127.168C386.067 125.846 386.125 125.181 386.065 125.173C382.038 124.635 378.411 125.222 375.185 126.932C373.145 128.006 371.992 129.535 371.728 131.518C371.559 132.781 371.87 133.893 372.659 134.855C373.448 135.816 374.745 136.418 376.548 136.658C378.411 136.907 380.257 136.603 382.084 135.745C383.972 134.896 385.088 133.179 385.433 130.594ZM416.341 128.663L415.986 132.011L415.071 138.863C414.213 145.295 413.647 148.615 413.375 148.824C412.489 149.501 411.056 149.921 409.076 150.085C407.097 150.249 405.476 150.247 404.213 150.079C403.011 149.918 402.422 149.748 402.446 149.567C403.228 146.919 404.032 142.499 404.859 136.307L407.296 115.984C407.793 112.258 408.212 110.264 408.553 110.004C409.302 109.431 410.521 109.012 412.208 108.748C413.903 108.423 415.442 108.353 416.824 108.538C418.267 108.731 418.968 108.977 418.928 109.278C418.555 110.696 418.272 112.127 418.08 113.569C417.887 115.012 417.881 115.745 418.062 115.769L418.356 115.625C418.713 115.245 419.232 114.794 419.913 114.273C420.603 113.692 421.977 113.019 424.037 112.254C426.165 111.437 428.101 111.144 429.844 111.377C431.647 111.618 433.106 112.149 434.22 112.97C435.402 113.74 436.323 114.628 436.984 115.634C437.645 116.64 438.134 118.02 438.451 119.776C438.827 121.539 439.069 123.162 439.177 124.645C439.285 126.127 439.269 128.083 439.128 130.511C438.867 133.841 438.396 138.061 437.714 143.17L436.036 153.684C435.979 154.104 434.935 154.363 432.904 154.459C430.864 154.615 429.243 154.612 428.041 154.452L425.125 153.604C426.449 148.274 427.447 143.085 428.121 138.036C428.803 132.926 428.982 129.065 428.658 126.453C428.341 123.78 427.191 122.311 425.208 122.046C423.224 121.781 421.529 122.106 420.122 123.019C418.776 123.941 417.85 124.918 417.345 125.952L416.509 127.401L416.341 128.663Z" fill="white"/>
<path d="M715.047 136.78C714.102 136.531 712.998 136.322 711.735 136.154C710.533 135.994 709.014 135.913 707.179 135.913C705.404 135.921 703.518 136.067 701.522 136.351C699.595 136.583 697.958 137.16 696.611 138.081C695.265 139.003 694.487 140.245 694.278 141.808C694.078 143.311 694.799 144.784 696.442 146.226C698.153 147.617 700.232 148.996 702.681 150.363C705.137 151.67 707.573 153.127 709.989 154.734C712.466 156.349 714.441 158.509 715.916 161.215C717.458 163.868 718.001 166.907 717.543 170.334C716.733 176.405 713.128 181.185 706.727 184.675C700.395 188.112 692.811 189.241 683.975 188.062C679.527 187.468 676.253 186.786 674.153 186.017C673.685 185.403 673.843 182.151 674.63 176.261C675.424 170.31 676.021 166.749 676.422 165.579C676.675 165.062 677.815 164.542 679.843 164.017C681.871 163.492 683.786 163.35 685.589 163.591C684.643 170.684 684.82 175.082 686.123 176.785C686.643 177.467 687.745 177.92 689.429 178.144C693.276 178.658 696.756 178.021 699.87 176.234C703.044 174.455 704.828 172.093 705.221 169.148C705.486 167.164 704.786 165.297 703.124 163.545C701.461 161.794 699.349 160.197 696.789 158.754C694.296 157.258 691.808 155.733 689.324 154.178C686.847 152.563 684.822 150.549 683.247 148.136C681.673 145.724 681.082 143.045 681.475 140.099C682.061 135.711 685.209 132.063 690.92 129.154C696.699 126.194 704.578 125.379 714.556 126.711C716.9 127.024 718.202 127.351 718.463 127.691C718.499 127.88 718.469 128.335 718.372 129.056C718.284 129.717 717.897 131.011 717.212 132.939C716.526 134.866 715.805 136.147 715.047 136.78ZM756.193 174.207C755.19 181.721 754.694 186.121 754.706 187.407C754.746 190.778 755.451 193.288 756.821 194.94C756.733 195.601 755.398 196.432 752.817 197.434C750.297 198.443 748.075 198.82 746.151 198.563C745.61 198.491 745.147 197.603 744.763 195.9C744.37 194.257 744.166 193.036 744.15 192.239C744.194 191.449 744.186 191.051 744.126 191.043L743.832 191.187C740.309 193.286 736.414 194.051 732.146 193.482C727.878 192.912 724.709 191.449 722.637 189.092C720.634 186.684 719.857 183.796 720.306 180.43C720.755 177.064 721.854 174.335 723.601 172.243C725.417 170.1 727.397 168.559 729.541 167.622C731.685 166.684 734.007 166.015 736.508 165.615C740.335 164.902 743.3 164.686 745.404 164.967L745.597 164.901C745.99 161.956 742.459 159.985 735.006 158.991C732.061 158.597 729.851 158.425 728.376 158.473L728.286 158.461C728.446 157.259 729.007 155.804 729.969 154.097C730.991 152.398 731.779 151.31 732.332 150.833C732.945 150.364 735.145 150.383 738.932 150.888C745.785 151.803 750.657 153.799 753.55 156.877C756.451 159.895 757.537 164.139 756.807 169.609L756.193 174.207ZM745.414 178.642L745.872 175.216C746.048 173.893 746.106 173.228 746.046 173.22C742.019 172.683 738.392 173.269 735.166 174.98C733.126 176.054 731.974 177.582 731.709 179.566C731.541 180.828 731.851 181.94 732.64 182.902C733.43 183.864 734.726 184.465 736.529 184.706C738.393 184.955 740.238 184.65 742.066 183.793C743.953 182.944 745.069 181.227 745.414 178.642ZM777.4 162.079L773.037 198.205C772.724 200.55 772.468 202.014 772.267 202.599C769.758 203.977 766.611 204.414 762.824 203.908L760.359 203.121C762.152 196.569 764.247 184.307 766.646 166.334C767.248 161.826 767.659 158.516 767.879 156.404L763.888 156.055C763.628 155.714 763.654 154.371 763.967 152.027C764.28 149.683 764.743 148.276 765.356 147.808C766.446 147.892 767.626 147.988 768.896 148.097L770.172 137.163C770.18 136.185 772.617 134.889 777.482 133.274C782.347 131.66 786.223 131.046 789.108 131.431C789.469 131.479 789.827 132.23 790.184 133.685C790.608 135.088 790.768 136.18 790.664 136.961C790.568 137.682 790.477 138.129 790.393 138.301C790.213 138.277 789.387 138.504 787.917 138.98C786.454 139.397 784.903 140.016 783.264 140.837C781.633 141.598 780.739 142.336 780.583 143.049C780.134 144.58 779.668 146.689 779.187 149.378L779.548 149.426C784.417 150.076 786.839 150.491 786.815 150.672C786.438 153.497 785.554 155.765 784.163 157.476C783.646 158.141 783.237 158.454 782.937 158.413C781.029 158.036 779.384 157.756 778.002 157.571L777.4 162.079ZM812.63 173.022C812.863 171.279 812.047 170.283 810.184 170.034C807.719 169.705 805.387 170.679 803.187 172.955C800.986 175.23 799.649 178.142 799.176 181.688C799.064 182.53 799.128 182.966 799.368 182.999C801.54 183.227 804.199 182.328 807.345 180.301C810.499 178.213 812.261 175.787 812.63 173.022ZM816.647 202.741C814.419 203.851 810.329 204.009 804.379 203.214C798.428 202.42 794.096 200.037 791.384 196.065C788.671 192.094 787.708 187.163 788.494 181.272C789.289 175.321 791.868 170.434 796.233 166.612C800.665 162.737 806.338 161.261 813.251 162.184C816.076 162.561 818.56 163.658 820.704 165.473C822.908 167.297 823.757 170.102 823.251 173.889C822.754 177.616 820.607 181.092 816.812 184.317C813.077 187.551 808.256 189.752 802.349 190.921C802.252 191.643 802.893 192.34 804.272 193.014C805.718 193.635 807.163 194.042 808.606 194.234C813.174 194.844 816.889 194.514 819.75 193.244C819.818 193.192 819.913 193.174 820.033 193.19C820.153 193.206 820.137 193.785 819.984 194.927C819.519 198.414 818.407 201.018 816.647 202.741ZM844.554 146.356C844.249 147.723 843.593 151.49 842.587 157.657C847.095 158.259 849.337 158.65 849.313 158.83C849.04 160.874 848.495 162.667 847.677 164.21C846.868 165.692 846.192 166.397 845.651 166.325L841.414 165.76C840.106 174.64 839.079 181.875 838.333 187.465C837.595 192.995 837.192 196.704 837.123 198.591C837.067 201.765 837.958 204.484 839.797 206.749C839.709 207.41 838.408 208.215 835.896 209.165C833.443 210.122 831.195 210.464 829.151 210.192C828.971 210.167 828.65 209.819 828.189 209.146C827.789 208.48 827.38 207.416 826.964 205.953C826.607 204.499 826.427 203.098 826.423 201.752C826.479 200.413 827.049 195.687 828.132 187.572C829.215 179.457 830.328 171.805 831.471 164.616L826.41 164.032C826.15 163.692 826.172 162.379 826.477 160.095C826.79 157.751 827.249 156.374 827.854 155.966C829.184 156.082 830.785 156.235 832.657 156.423C833.122 152.937 833.333 150.671 833.289 149.625C833.245 148.579 833.235 147.966 833.259 147.785C833.339 147.184 834.453 146.629 836.601 146.121C838.809 145.62 840.695 145.474 842.258 145.683C843.821 145.891 844.586 146.116 844.554 146.356ZM881.903 185.847L878.792 209.843C878.166 214.531 876.978 218.625 875.226 222.123C873.534 225.629 871.655 228.254 869.587 229.996C867.579 231.747 865.348 233.102 862.896 234.059C858.888 235.665 854.961 236.212 851.114 235.698C850.934 235.674 850.633 235.175 850.212 234.202C849.792 233.228 849.445 231.927 849.173 230.3C848.893 228.733 848.841 227.289 849.017 225.966C851.301 226.271 853.646 226.125 856.05 225.528C858.447 224.992 860.164 224.273 861.202 223.371C862.232 222.53 863.298 221.418 864.4 220.035C866.657 217.339 868.226 212.684 869.109 206.072L869.368 203.446C869.416 203.085 869.38 202.897 869.26 202.881C869.139 202.865 869.007 202.939 868.863 203.103C868.719 203.267 868.536 203.488 868.316 203.764C868.103 203.98 867.588 204.401 866.771 205.026C866.021 205.599 865.22 206.104 864.366 206.541C862.07 207.702 859.84 208.139 857.676 207.85C855.572 207.569 853.925 207.074 852.735 206.365C851.605 205.663 850.675 204.836 849.946 203.882C849.277 202.936 848.772 201.676 848.432 200.101C848.099 198.466 847.871 196.967 847.747 195.604C847.623 194.242 847.653 192.41 847.838 190.11C848.023 186.892 848.344 183.57 848.801 180.144C849.435 175.395 850.193 171.55 851.075 168.609L851.514 167.383C851.57 166.962 852.528 166.662 854.387 166.482C856.307 166.31 857.868 166.304 859.07 166.464L861.895 167.3C860.439 173.163 859.439 178.138 858.893 182.225C858.348 186.313 858.315 189.765 858.796 192.582C859.276 195.399 860.508 196.94 862.492 197.205C864.476 197.47 866.115 197.108 867.409 196.118C868.772 195.076 869.68 194.004 870.133 192.902L870.812 191.249C871.197 187.446 871.679 183.381 872.256 179.053C872.842 174.665 873.305 172.341 873.646 172.081C874.532 171.403 875.964 170.983 877.944 170.819C879.984 170.663 881.605 170.665 882.807 170.826C884.009 170.986 884.598 171.156 884.574 171.337C883.716 174.098 882.826 178.934 881.903 185.847Z" fill="white"/>
<path d="M1159.5 258.873C1159.54 259.061 1159.49 259.636 1159.36 260.598C1159.23 261.56 1158.71 262.988 1157.78 264.883C1156.91 266.847 1156.17 268.033 1155.56 268.442C1155.34 268.718 1154.35 268.8 1152.59 268.688C1147.12 267.958 1142.27 266.514 1138.03 264.358C1133.85 262.209 1130.49 259.65 1127.95 256.68C1125.46 253.779 1123.45 250.482 1121.93 246.791C1119.17 239.938 1118.33 232.485 1119.4 224.43C1120.41 216.916 1123.48 209.924 1128.63 203.453C1131.37 199.902 1134.53 196.837 1138.12 194.257C1141.76 191.685 1146.2 189.8 1151.44 188.602C1156.75 187.353 1162.41 187.129 1168.42 187.931C1174.49 188.742 1179.81 190.339 1184.39 192.724C1188.96 195.109 1192.54 197.851 1195.13 200.949C1197.77 204.055 1199.85 207.514 1201.36 211.325C1203.98 218.282 1204.79 225.487 1203.8 232.941C1202.85 240.034 1200.13 246.461 1195.63 252.223C1193.41 255.108 1190.61 257.304 1187.22 258.81C1183.83 260.377 1180.18 260.899 1176.28 260.378C1172.97 259.936 1170.17 258.431 1167.89 255.862C1165.87 253.514 1165.03 250.249 1165.34 246.07C1165.35 245.95 1165.33 245.886 1165.27 245.877C1165.21 245.869 1165.11 245.918 1164.98 246.022C1161.45 248.121 1157.56 248.886 1153.29 248.316C1149.02 247.747 1145.85 246.284 1143.78 243.927C1141.77 241.578 1140.99 238.721 1141.44 235.355C1141.89 231.989 1142.99 229.26 1144.74 227.168C1146.55 225.025 1148.53 223.484 1150.67 222.547C1152.88 221.617 1155.21 220.918 1157.65 220.45C1161.42 219.729 1164.42 219.517 1166.64 219.814L1166.74 219.736C1167.14 216.79 1163.61 214.82 1156.15 213.825C1153.21 213.432 1151 213.26 1149.52 213.307L1149.43 213.295C1149.59 212.093 1150.18 210.643 1151.21 208.944C1152.24 207.185 1153.09 206.045 1153.77 205.524C1153.8 205.343 1154.54 205.289 1156 205.362C1157.46 205.434 1158.82 205.554 1160.08 205.723C1166.99 206.646 1171.89 208.676 1174.77 211.814C1177.67 214.892 1178.74 219.256 1177.98 224.907L1177.58 227.239C1176.91 231.799 1176.37 235.582 1175.97 238.588C1175.57 241.593 1175.35 243.705 1175.31 244.923C1175.25 248.586 1176.72 250.618 1179.73 251.019C1181.77 251.292 1183.64 250.807 1185.34 249.565C1187.09 248.331 1188.51 246.624 1189.6 244.444C1191.63 240.249 1192.9 236.197 1193.42 232.29C1194.83 221.771 1193.03 213.486 1188.02 207.434C1183.09 201.33 1176.17 197.684 1167.27 196.497C1161.56 195.735 1156.07 196.317 1150.8 198.244C1145.52 200.171 1140.95 203.536 1137.06 208.341C1133.18 213.145 1130.77 219.003 1129.85 225.916C1128.6 235.293 1130.67 243.156 1136.06 249.504C1137.97 251.717 1140.53 253.648 1143.73 255.3C1146.94 256.951 1150.1 257.986 1153.23 258.403C1156.36 258.82 1158.45 258.977 1159.5 258.873ZM1152.86 234.401C1152.69 235.663 1153 236.775 1153.79 237.737C1154.58 238.699 1155.69 239.276 1157.13 239.469C1158.64 239.669 1159.92 239.687 1160.98 239.523C1162.1 239.367 1163.25 238.786 1164.43 237.78C1165.6 236.775 1166.31 235.37 1166.55 233.567L1167.01 230.141C1167.18 228.818 1167.24 228.153 1167.18 228.145C1164.78 227.824 1162.44 227.91 1160.17 228.403C1155.69 229.456 1153.25 231.455 1152.86 234.401ZM1243.69 228.629C1250.87 228.914 1256.29 227.955 1259.95 225.752C1263.67 223.496 1265.71 221.076 1266.06 218.491C1266.41 215.847 1265.37 213.751 1262.95 212.203C1260.53 210.596 1257.34 209.528 1253.37 208.998C1251.27 208.717 1249.11 208.613 1246.9 208.685C1246.19 211.221 1245.12 217.869 1243.69 228.629ZM1240.53 259.868C1239.78 260.441 1238.39 260.775 1236.36 260.871C1234.32 261.027 1232.63 261.017 1231.31 260.841C1229.99 260.664 1228.87 260.331 1227.96 259.842L1235.44 207.89C1234.79 206.824 1234.22 205.126 1233.74 202.798C1233.31 200.478 1233.13 199.077 1233.2 198.596C1233.27 198.055 1233.37 197.733 1233.51 197.629C1233.65 197.464 1235.57 197.537 1239.26 197.846C1243.02 198.103 1246.79 198.484 1250.58 198.989C1254.37 199.495 1257.7 200.155 1260.59 200.968C1263.48 201.782 1266.45 202.943 1269.49 204.45C1272.54 205.897 1274.84 207.887 1276.4 210.42C1277.96 212.953 1278.5 216.023 1278.02 219.629C1277.54 223.176 1275.84 226.313 1272.91 229.042C1269.97 231.77 1266.2 233.898 1261.59 235.424C1261.46 236.386 1262.78 240.966 1265.54 249.166C1268.31 257.305 1270.66 262.635 1272.58 265.156C1272.64 265.224 1272.65 265.318 1272.64 265.439C1272.61 265.619 1272.09 265.855 1271.07 266.148C1268.26 267.057 1265.32 267.307 1262.26 266.898L1260.03 266.417C1258.88 264.918 1257.15 260.221 1254.84 252.326C1252.59 244.439 1251.4 239.63 1251.26 237.899C1250.48 238.224 1247.54 238.474 1242.44 238.649C1240.95 250.747 1240.31 257.82 1240.53 259.868ZM1300.94 263.893L1301.1 261.988L1301.04 261.795C1299.3 263.827 1297.23 265.356 1294.83 266.381C1292.49 267.415 1290.26 267.791 1288.16 267.51C1281.85 266.668 1278.89 261.288 1279.3 251.369C1279.39 249.79 1279.87 245.755 1280.73 239.263C1281.6 232.772 1282.38 228.961 1283.09 227.831C1284.82 226.777 1287.43 226.483 1290.91 226.948C1292.29 227.133 1293.12 227.395 1293.38 227.736C1293.37 227.796 1293.23 228.603 1292.96 230.158C1292.05 234.686 1291.43 238.183 1291.1 240.647C1290.77 243.112 1290.56 244.949 1290.46 246.159C1290.37 247.309 1290.3 248.065 1290.25 248.425C1290.27 248.734 1290.28 249.317 1290.29 250.175C1290.36 251.04 1290.5 251.794 1290.72 252.435C1291.39 254.298 1292.66 255.355 1294.52 255.603C1296.44 255.86 1298.25 255.153 1299.94 253.482C1301.7 251.759 1302.6 250.503 1302.65 249.713L1303.06 246.648C1304.53 235.648 1305.5 229.751 1305.97 228.958C1306.34 228.457 1307.35 228.01 1308.99 227.618C1310.7 227.233 1312.33 227.145 1313.89 227.354C1315.45 227.563 1316.34 227.803 1316.55 228.076L1315.8 232.289C1314.29 240.837 1313.23 247.455 1312.6 252.143C1311.98 256.832 1311.7 259.823 1311.77 261.118C1311.79 264.179 1312.28 266.692 1313.24 268.656C1313.16 269.257 1311.8 270.054 1309.16 271.048C1306.52 272.041 1304.33 272.421 1302.58 272.189C1302.1 272.125 1301.68 271.151 1301.32 269.267C1300.96 267.384 1300.83 265.592 1300.94 263.893ZM1338.84 212.33C1338.54 213.697 1337.88 217.463 1336.88 223.631C1341.38 224.232 1343.63 224.623 1343.6 224.804C1343.33 226.847 1342.78 228.641 1341.97 230.183C1341.16 231.666 1340.48 232.371 1339.94 232.299L1335.7 231.733C1334.39 240.613 1333.37 247.849 1332.62 253.439C1331.88 258.969 1331.48 262.678 1331.41 264.565C1331.36 267.739 1332.25 270.458 1334.09 272.722C1334 273.384 1332.7 274.189 1330.18 275.138C1327.73 276.096 1325.48 276.438 1323.44 276.165C1323.26 276.141 1322.94 275.793 1322.48 275.119C1322.08 274.454 1321.67 273.39 1321.25 271.927C1320.9 270.472 1320.72 269.072 1320.71 267.725C1320.77 266.387 1321.34 261.66 1322.42 253.546C1323.5 245.431 1324.62 237.779 1325.76 230.59L1320.7 230.006C1320.44 229.665 1320.46 228.353 1320.77 226.069C1321.08 223.725 1321.54 222.348 1322.14 221.939C1323.47 222.056 1325.07 222.208 1326.95 222.397C1327.41 218.911 1327.62 216.644 1327.58 215.599C1327.53 214.553 1327.52 213.939 1327.55 213.759C1327.63 213.158 1328.74 212.603 1330.89 212.095C1333.1 211.594 1334.98 211.448 1336.55 211.656C1338.11 211.865 1338.87 212.09 1338.84 212.33ZM1379.39 258.764C1378.63 264.474 1376.23 269.201 1372.18 272.943C1368.2 276.633 1363.23 278.081 1357.28 277.287C1351.39 276.501 1347.01 274.05 1344.13 269.934C1341.26 265.818 1340.21 260.844 1340.98 255.014C1341.77 249.123 1344.54 244.2 1349.29 240.246C1354.11 236.239 1360.06 234.709 1367.15 235.656C1370.02 236.161 1371.56 236.55 1371.77 236.823C1371.98 237.095 1372.02 237.682 1371.9 238.584C1371.78 239.485 1371.56 240.465 1371.23 241.523C1372.14 241.643 1373.21 242.337 1374.44 243.603C1375.75 244.818 1376.78 246.026 1377.54 247.228C1378.3 248.431 1378.87 250.068 1379.27 252.14C1379.67 254.152 1379.72 256.36 1379.39 258.764ZM1367.07 250.695C1365.81 249.609 1364.52 248.978 1363.2 248.801L1362.48 248.705C1362.39 248.449 1362.39 247.93 1362.5 247.148C1362.6 246.367 1362.79 245.628 1363.07 244.93C1360.61 244.601 1358.14 245.405 1355.68 247.34C1353.28 249.283 1351.82 252.238 1351.29 256.205C1350.66 260.894 1351.73 264.34 1354.5 266.545C1355.54 267.419 1357.06 267.988 1359.04 268.253C1361.08 268.525 1363.1 267.846 1365.09 266.216C1367.15 264.593 1368.42 261.948 1368.91 258.282C1369.39 254.615 1368.78 252.086 1367.07 250.695ZM1385.85 265.682L1390.56 233.091C1391.2 228.342 1391.57 225.118 1391.67 223.419C1391.78 221.72 1391.84 220.81 1391.85 220.69C1391.93 220.089 1393.02 219.53 1395.1 219.013C1397.25 218.505 1399.11 218.355 1400.67 218.563C1402.23 218.772 1403 218.997 1402.97 219.237C1402.37 221.421 1401.18 229.215 1399.39 242.619L1396.26 264.686C1395.71 268.833 1395.42 271.396 1395.42 272.374C1395.36 275.059 1395.91 277.579 1397.07 279.936C1396.99 280.537 1395.63 281.334 1392.99 282.328C1390.35 283.321 1388.15 283.701 1386.41 283.469C1385.93 283.405 1385.51 282.431 1385.15 280.547C1384.79 278.664 1384.64 277.053 1384.69 275.714C1384.75 274.376 1385.13 271.032 1385.85 265.682ZM1428.87 255.273C1429.1 253.529 1428.29 252.533 1426.42 252.285C1423.96 251.956 1421.63 252.929 1419.43 255.205C1417.23 257.481 1415.89 260.392 1415.42 263.939C1415.3 264.78 1415.37 265.217 1415.61 265.249C1417.78 265.478 1420.44 264.579 1423.58 262.551C1426.74 260.464 1428.5 258.038 1428.87 255.273ZM1432.89 284.992C1430.66 286.101 1426.57 286.259 1420.62 285.465C1414.67 284.671 1410.34 282.288 1407.62 278.316C1404.91 274.344 1403.95 269.413 1404.73 263.522C1405.53 257.572 1408.11 252.685 1412.47 248.863C1416.9 244.988 1422.58 243.512 1429.49 244.435C1432.31 244.812 1434.8 245.908 1436.94 247.724C1439.15 249.547 1440 252.353 1439.49 256.14C1438.99 259.866 1436.85 263.342 1433.05 266.568C1429.32 269.801 1424.49 272.003 1418.59 273.172C1418.49 273.893 1419.13 274.591 1420.51 275.264C1421.96 275.886 1423.4 276.292 1424.84 276.485C1429.41 277.095 1433.13 276.765 1435.99 275.495C1436.06 275.443 1436.15 275.425 1436.27 275.441C1436.39 275.457 1436.38 276.036 1436.22 277.178C1435.76 280.664 1434.65 283.269 1432.89 284.992Z" fill="white"/>
<path d="M583.945 161.819C581.314 181.53 563.202 195.377 543.491 192.746C523.78 190.115 509.934 172.003 512.565 152.292C515.196 132.581 533.308 118.735 553.019 121.366C572.73 123.997 586.576 142.108 583.945 161.819Z" stroke="#B9C628" stroke-width="3.79015"/>
<path d="M587.956 131.766C585.325 151.477 567.214 165.323 547.503 162.692C527.792 160.061 513.945 141.95 516.576 122.239C519.207 102.528 537.319 88.6813 557.03 91.3122C576.741 93.943 590.587 112.055 587.956 131.766Z" stroke="#B9C628" stroke-width="3.79015"/>
<path d="M544.995 181.477C566.781 184.385 586.799 169.081 589.707 147.295C592.615 125.51 577.311 105.491 555.525 102.584C533.74 99.6758 513.721 114.98 510.814 136.765C507.906 158.551 523.21 178.569 544.995 181.477Z" fill="#181FC6" stroke="white" stroke-width="3.79015"/>
<rect x="66.636" y="41.1499" width="64.4326" height="72.0129" rx="15.1606" transform="rotate(7.6024 66.636 41.1499)" fill="#B9C628"/>
<path d="M1048.04 208.467C1045.41 228.178 1027.3 242.024 1007.59 239.393C987.878 236.762 974.031 218.651 976.662 198.94C979.293 179.229 997.405 165.382 1017.12 168.013C1036.83 170.644 1050.67 188.756 1048.04 208.467Z" stroke="#9747FF" stroke-width="3.79015"/>
</g>
<defs>
<clipPath id="clip0_11_532">
<rect width="1573.88" height="346.595" fill="white" transform="translate(0 0.319824)"/>
</clipPath>
</defs>
</svg>
