<svg width="34" height="45" viewBox="0 0 34 45" fill="none" xmlns="http://www.w3.org/2000/svg">
<path d="M0 42.6395C0 41.336 1.05668 40.2793 2.36016 40.2793H31.2525C32.556 40.2793 33.6127 41.336 33.6127 42.6395V42.6395C33.6127 43.9429 32.556 44.9996 31.2525 44.9996H2.36016C1.05668 44.9996 0 43.9429 0 42.6395V42.6395Z" fill="#110F0F"/>
<path d="M2.36016 40.4171H30.9275C32.1549 40.4171 33.1499 41.4121 33.1499 42.6395C33.1499 43.8668 32.1549 44.8619 30.9275 44.8619H2.36016C1.13276 44.8619 0.137757 43.8668 0.137757 42.6395C0.137757 41.4121 1.13276 40.4171 2.36016 40.4171Z" fill="#7E15D0" stroke="#110F0F" stroke-width="0.275514"/>
<path d="M0 28.7547C0 27.4512 1.05668 26.3945 2.36016 26.3945H3.70115C5.00463 26.3945 6.06131 27.4512 6.06131 28.7547V28.7547C6.06131 30.0582 5.00463 31.1148 3.70115 31.1148H2.36015C1.05668 31.1148 0 30.0582 0 28.7547V28.7547Z" fill="#110F0F"/>
<path d="M0 35.698C0 34.3946 1.05668 33.3379 2.36016 33.3379H3.70115C5.00463 33.3379 6.06131 34.3946 6.06131 35.698V35.698C6.06131 37.0015 5.00463 38.0582 3.70115 38.0582H2.36015C1.05668 38.0582 0 37.0015 0 35.698V35.698Z" fill="#110F0F"/>
<path d="M0 21.8113C0 20.5078 1.05668 19.4512 2.36016 19.4512H3.70115C5.00463 19.4512 6.06131 20.5078 6.06131 21.8113V21.8113C6.06131 23.1148 5.00463 24.1715 3.70115 24.1715H2.36015C1.05668 24.1715 0 23.1148 0 21.8113V21.8113Z" fill="#110F0F"/>
<path d="M0 14.868C0 13.5645 1.05668 12.5078 2.36016 12.5078H3.70115C5.00463 12.5078 6.06131 13.5645 6.06131 14.868V14.868C6.06131 16.1714 5.00463 17.2281 3.70115 17.2281H2.36015C1.05668 17.2281 0 16.1714 0 14.868V14.868Z" fill="#110F0F"/>
<path d="M0 7.92461C0 6.62113 1.05668 5.56445 2.36016 5.56445H3.70115C5.00463 5.56445 6.06131 6.62113 6.06131 7.92461V7.92461C6.06131 9.22809 5.00463 10.2848 3.70115 10.2848H2.36015C1.05668 10.2848 0 9.22809 0 7.92461V7.92461Z" fill="#110F0F"/>
<path d="M10.1863 2.36016C10.1863 1.05668 11.243 0 12.5464 0H13.8874C15.1909 0 16.2476 1.05668 16.2476 2.36016V2.36016C16.2476 3.66363 15.1909 4.72031 13.8874 4.72031H12.5464C11.243 4.72031 10.1863 3.66363 10.1863 2.36016V2.36016Z" fill="#110F0F"/>
<path d="M20.6982 7.92461C20.6982 6.62113 21.7549 5.56445 23.0584 5.56445H24.3994C25.7029 5.56445 26.7595 6.62113 26.7595 7.92461V7.92461C26.7595 9.22809 25.7029 10.2848 24.3994 10.2848H23.0584C21.7549 10.2848 20.6982 9.22809 20.6982 7.92461V7.92461Z" fill="#110F0F"/>
<path d="M20.6982 15.1238C20.6982 13.8203 21.7549 12.7637 23.0584 12.7637H24.3994C25.7029 12.7637 26.7595 13.8203 26.7595 15.1238V15.1238C26.7595 16.4273 25.7029 17.484 24.3994 17.484H23.0584C21.7549 17.484 20.6982 16.4273 20.6982 15.1238V15.1238Z" fill="#110F0F"/>
<path d="M10.186 21.7371C10.186 20.4336 11.2427 19.377 12.5462 19.377H13.8872C15.1907 19.377 16.2473 20.4336 16.2473 21.7371V21.7371C16.2473 23.0406 15.1907 24.0973 13.8872 24.0973H12.5462C11.2427 24.0973 10.186 23.0406 10.186 21.7371V21.7371Z" fill="#110F0F"/>
<path d="M20.6982 22.3252C20.6982 21.0218 21.7549 19.9651 23.0584 19.9651H24.3994C25.7029 19.9651 26.7595 21.0218 26.7595 22.3252V22.3252C26.7595 23.6287 25.7029 24.6854 24.3994 24.6854H23.0584C21.7549 24.6854 20.6982 23.6287 20.6982 22.3252V22.3252Z" fill="#110F0F"/>
<path d="M26.7598 31.1143C26.7598 29.8108 27.8164 28.7542 29.1199 28.7542H30.4609C31.7644 28.7542 32.8211 29.8108 32.8211 31.1143V31.1143C32.8211 32.4178 31.7644 33.4745 30.4609 33.4745H29.1199C27.8164 33.4745 26.7598 32.4178 26.7598 31.1143V31.1143Z" fill="#110F0F"/>
</svg>
