<svg width="89" height="82" viewBox="0 0 89 82" fill="none" xmlns="http://www.w3.org/2000/svg">
<rect x="5.5" y="4.5" width="78" height="73" rx="22.5" stroke="black" stroke-width="5"/>
<path opacity="0.4" d="M62.2399 33.9C60.1399 24.66 52.0799 20.5 44.9999 20.5C44.9999 20.5 44.9999 20.5 44.9799 20.5C37.9199 20.5 29.8399 24.64 27.7399 33.88C25.3999 44.2 31.7199 52.94 37.4399 58.44C39.5599 60.48 42.2799 61.5 44.9999 61.5C47.7199 61.5 50.4399 60.48 52.5399 58.44C58.2599 52.94 64.5799 44.22 62.2399 33.9Z" fill="#110F0F"/>
<path d="M45 43.92C48.4793 43.92 51.2999 41.0994 51.2999 37.62C51.2999 34.1406 48.4793 31.32 45 31.32C41.5206 31.32 38.7 34.1406 38.7 37.62C38.7 41.0994 41.5206 43.92 45 43.92Z" fill="#110F0F"/>
</svg>
