<svg width="1512" height="348" viewBox="0 0 1512 348" fill="none" xmlns="http://www.w3.org/2000/svg">
<g clip-path="url(#clip0_40_1269)">
<rect x="-19.8829" y="101.722" width="1538.54" height="136.382" transform="rotate(-3.66396 -19.8829 101.722)" fill="#110F0F"/>
<path d="M606.72 91.6307C607.093 97.4573 606.485 105.504 604.897 115.77C603.305 125.978 601.571 134.894 599.696 142.519C597.82 150.145 596.55 154.304 595.885 154.996C595.224 155.748 593.616 156.471 591.06 157.167C588.563 157.859 586.638 158.248 585.284 158.335C583.931 158.421 583.248 158.376 583.237 158.2C583.089 157.737 582.338 154.771 580.983 149.302C577.049 134.012 574.846 125.909 574.373 124.994C573.897 124.02 573.6 123.536 573.483 123.544L573.075 124.102C571.837 127.845 570.526 133.661 569.14 141.551C567.809 149.378 567.179 153.85 567.251 154.969C567.266 155.204 566.728 155.563 565.636 156.047C562.647 157.361 559.681 158.113 556.738 158.301C556.091 158.342 555.673 158.281 555.485 158.115C553.795 156.628 550.798 148.133 546.496 132.629C542.249 117.063 539.92 106.073 539.509 99.6576C539.502 99.5399 539.781 99.2857 540.347 98.8948C542.284 97.7662 544.431 97.1559 546.789 97.064C549.202 96.9094 550.413 96.891 550.42 97.0088C551.322 104.634 552.692 112.642 554.529 121.034C556.422 129.364 558.086 135.049 559.522 138.089C559.666 138.493 559.797 138.692 559.914 138.684C560.091 138.673 560.254 138.456 560.405 138.033C564.036 119.066 566.346 108.99 567.333 107.804C569.399 106.844 572.345 106.242 576.171 105.997C578.297 105.979 579.454 106.053 579.642 106.218C579.83 106.383 580.577 108.818 581.883 113.521C583.185 118.165 584.609 123.334 586.155 129.026C587.698 134.66 588.625 138.057 588.936 139.219C589.301 140.319 589.68 140.235 590.072 138.969C590.895 136.139 591.839 131.026 592.901 123.63C593.964 116.234 594.289 109.299 593.874 102.825C593.832 102.177 593.234 101.595 592.078 101.078C590.977 100.499 589.864 100.186 588.738 100.14C588.668 99.9669 588.616 99.6156 588.582 99.0859C588.544 98.4974 588.609 97.6659 588.777 96.5914C588.999 95.4543 589.193 94.7918 589.358 94.604C594.624 92.8485 599.934 91.7992 605.29 91.4563C606.24 91.5137 606.716 91.5718 606.72 91.6307ZM634.506 122.473C634.397 120.766 633.43 119.971 631.606 120.088C629.193 120.242 627.153 121.614 625.487 124.203C623.821 126.791 623.099 129.822 623.321 133.294C623.374 134.118 623.518 134.523 623.753 134.508C625.868 134.313 628.233 132.95 630.849 130.419C633.461 127.829 634.68 125.18 634.506 122.473ZM643.985 150.055C642.07 151.537 638.2 152.464 632.373 152.837C626.546 153.21 621.962 151.761 618.621 148.488C615.279 145.215 613.423 140.695 613.054 134.927C612.681 129.1 614.213 123.949 617.649 119.474C621.141 114.937 626.271 112.451 633.039 112.018C635.805 111.841 638.383 112.414 640.773 113.739C643.221 115.059 644.564 117.574 644.802 121.282C645.035 124.931 643.648 128.654 640.641 132.451C637.693 136.245 633.513 139.261 628.101 141.498C628.146 142.205 628.89 142.748 630.333 143.128C631.831 143.446 633.286 143.56 634.699 143.469C639.172 143.183 642.652 142.162 645.14 140.407C645.195 140.345 645.281 140.309 645.399 140.302C645.517 140.294 645.611 140.85 645.683 141.968C645.902 145.382 645.336 148.077 643.985 150.055ZM667.424 88.5413C669.013 88.4395 670.261 89.0097 671.168 90.2517C672.134 91.49 672.684 93.1685 672.82 95.2873C672.956 97.4061 672.617 99.4962 671.803 101.558C670.99 103.619 670.14 105.121 669.255 106.064C668.37 107.007 667.574 107.502 666.868 107.547C666.221 107.588 665.531 107.426 664.798 107.059C664.124 106.688 663.654 106.275 663.389 105.819C665.917 103.767 667.251 101.524 667.39 99.0922C664.153 99.2994 662.42 97.608 662.19 94.0178C662.21 92.4801 662.69 91.2083 663.63 90.2025C664.57 89.1968 665.835 88.643 667.424 88.5413ZM682.657 135.611L681.197 115.582C680.975 112.11 680.974 110.248 681.194 109.998C681.8 109.309 682.883 108.678 684.442 108.106C685.997 107.474 687.451 107.115 688.805 107.029C690.217 106.938 690.933 107.04 690.952 107.334C690.877 108.935 690.906 110.765 691.038 112.825C691.166 114.826 691.289 115.823 691.406 115.815C691.524 115.808 691.638 115.741 691.748 115.616C691.855 115.432 692.016 115.185 692.233 114.876C692.504 114.504 693.026 113.879 693.797 113.003C694.627 112.122 695.523 111.356 696.486 110.703C698.912 108.893 701.566 107.896 704.45 107.711C704.97 108.446 705.281 109.608 705.382 111.197C705.597 114.552 705.338 116.962 704.604 118.427L704.296 119.156L703.137 119.053C698.9 119.324 695.686 121.273 693.495 124.9C692.644 126.373 692.241 127.463 692.286 128.169L692.784 135.938C693.236 143.001 693.379 146.626 693.214 146.814C691.668 148.508 688.482 149.51 683.656 149.819C683.185 149.849 682.944 149.776 682.932 149.6C683.197 147.278 683.106 142.615 682.657 135.611ZM730.635 116.317C730.525 114.61 729.559 113.815 727.734 113.932C725.321 114.087 723.281 115.458 721.615 118.047C719.949 120.636 719.227 123.666 719.449 127.139C719.502 127.963 719.646 128.367 719.882 128.352C721.997 128.158 724.362 126.795 726.977 124.263C729.589 121.673 730.808 119.024 730.635 116.317ZM740.113 143.899C738.199 145.381 734.328 146.308 728.501 146.682C722.675 147.055 718.091 145.605 714.749 142.332C711.407 139.059 709.552 134.539 709.182 128.771C708.809 122.945 710.341 117.794 713.778 113.319C717.269 108.781 722.399 106.296 729.167 105.862C731.934 105.685 734.512 106.259 736.901 107.583C739.35 108.904 740.693 111.418 740.93 115.126C741.164 118.775 739.777 122.498 736.77 126.296C733.821 130.089 729.641 133.105 724.23 135.343C724.275 136.049 725.019 136.592 726.461 136.973C727.959 137.29 729.414 137.404 730.827 137.314C735.3 137.027 738.78 136.006 741.268 134.252C741.323 134.189 741.41 134.154 741.527 134.146C741.645 134.139 741.74 134.694 741.811 135.812C742.03 139.226 741.464 141.922 740.113 143.899Z" fill="white"/>
<path d="M1053.42 103.616C1052.59 103.61 1050.06 103.743 1045.82 104.014C1041.58 104.286 1039.12 104.562 1038.43 104.842C1035.96 115.283 1034.67 122.782 1034.55 127.341C1034.55 127.399 1033.82 127.476 1032.35 127.57C1030.93 127.661 1029.46 127.667 1027.92 127.588C1024.65 127.324 1023 127.016 1022.98 126.663C1022.83 124.309 1024.48 117.318 1027.93 105.692C1027.12 105.093 1026.16 103.826 1025.03 101.889C1023.9 99.8927 1023.29 98.2179 1023.2 96.8643C1023.2 96.8054 1025.63 96.5313 1030.5 96.0419C1034.43 81.7253 1036.7 74.1637 1037.3 73.3571C1037.52 73.1655 1038.56 72.8328 1040.42 72.3591C1042.28 71.8265 1043.47 71.5432 1044 71.5093L1043.75 70.3729C1043.58 69.5565 1043.38 68.6831 1043.14 67.7527C1042.96 66.7597 1042.86 66.1161 1042.84 65.8218C1042.83 65.6452 1043.31 65.2601 1044.27 64.6663C1047.07 63.0691 1049.99 62.1725 1053.06 61.9765C1053.87 65.4113 1054.92 69.8059 1056.2 75.1603C1057.55 80.452 1059.99 88.5399 1063.52 99.4238C1067.05 110.308 1070.25 117.844 1073.12 122.034L1073.81 123.054C1073.83 123.348 1073.3 123.884 1072.23 124.662C1071.15 125.44 1069.73 126.211 1067.94 126.975C1066.16 127.739 1064.5 128.17 1062.97 128.268C1062.44 128.302 1060.94 125.06 1058.45 118.541C1056.02 111.96 1054.34 106.985 1053.42 103.616ZM1050.72 94.659C1048.17 86.312 1046.78 81.6439 1046.54 80.6547C1046.3 79.6654 1046.12 79.1746 1046 79.1821C1045.88 79.1897 1045.74 79.3168 1045.58 79.5635C1045.12 80.598 1044.27 83.0751 1043.04 86.9949C1041.88 90.911 1041.13 93.6179 1040.82 95.1156C1047.35 94.6973 1050.65 94.5451 1050.72 94.659ZM1077.07 109.193L1074.81 76.6283C1074.34 69.2713 1074.24 65.4363 1074.52 65.1232C1075.18 64.3717 1076.28 63.6214 1077.83 62.8722C1079.43 62.1193 1080.97 61.6957 1082.45 61.6015C1083.92 61.5073 1084.66 61.5779 1084.67 61.8133C1084.59 62.4094 1084.63 65.7754 1084.79 71.9115C1085 77.9849 1085.18 81.7554 1085.34 83.223L1086.75 83.1325C1093.28 82.7142 1098.7 83.8739 1103.02 86.6117C1104.74 87.7422 1106.3 89.5038 1107.7 91.8965C1109.09 94.2305 1109.89 97.0159 1110.1 100.253C1110.45 105.844 1108.49 110.668 1104.2 114.725C1099.9 118.723 1094.49 121.463 1087.97 122.945C1088.06 124.298 1088.07 125.036 1088.02 125.157C1087.31 125.971 1085.99 126.647 1084.07 127.183C1082.22 127.716 1080.67 128.022 1079.43 128.101C1078.26 128.176 1077.66 128.125 1077.65 127.949C1077.96 126.275 1077.77 120.023 1077.07 109.193ZM1087.52 113.222C1089.05 113.124 1090.63 112.787 1092.25 112.211C1093.86 111.575 1095.14 110.843 1096.09 110.014C1097.1 109.181 1097.97 107.914 1098.69 106.214C1099.46 104.509 1099.77 102.333 1099.6 99.6841C1099.43 97.0356 1098.36 95.0654 1096.38 93.7735C1094.47 92.4778 1092.3 91.9072 1089.89 92.0617L1085.85 92.5866L1086.25 98.943C1086.76 106.888 1087.19 111.648 1087.52 113.222ZM1152.88 98.6655C1153.24 104.257 1151.84 109.222 1148.69 113.56C1145.6 117.836 1141.14 120.16 1135.31 120.534C1129.54 120.903 1124.9 119.398 1121.37 116.019C1117.85 112.64 1115.9 108.096 1115.53 102.387C1115.17 96.6189 1116.87 91.3979 1120.65 86.7237C1124.48 81.9869 1129.87 79.3961 1136.82 78.9514C1139.65 78.8882 1141.19 78.9668 1141.44 79.1871C1141.69 79.4075 1141.84 79.9591 1141.9 80.8419C1141.96 81.7247 1141.93 82.7015 1141.82 83.7722C1142.71 83.7157 1143.86 84.1737 1145.28 85.1465C1146.76 86.0565 1147.97 87.013 1148.92 88.0159C1149.87 89.0187 1150.73 90.4706 1151.5 92.3713C1152.27 94.2132 1152.73 96.3113 1152.88 98.6655ZM1139.6 93.3111C1138.19 92.5149 1136.83 92.1583 1135.54 92.2412L1134.83 92.2865C1134.7 92.0586 1134.61 91.5621 1134.56 90.797C1134.51 90.0318 1134.55 89.2905 1134.68 88.5729C1132.27 88.7274 1130.07 89.9614 1128.1 92.2747C1126.17 94.5842 1125.34 97.6812 1125.59 101.566C1125.88 106.156 1127.56 109.24 1130.61 110.818C1131.78 111.452 1133.33 111.707 1135.27 111.583C1137.27 111.455 1139.07 110.424 1140.66 108.49C1142.31 106.553 1143.02 103.789 1142.79 100.198C1142.56 96.6083 1141.49 94.3125 1139.6 93.3111ZM1182.66 111.829L1182.45 109.98L1182.35 109.809C1181.08 112.077 1179.39 113.929 1177.3 115.363C1175.26 116.793 1173.21 117.575 1171.15 117.706C1164.97 118.102 1161.14 113.532 1159.64 103.995C1159.42 102.472 1159.11 98.5325 1158.7 92.1761C1158.3 85.8198 1158.32 82.0361 1158.78 80.825C1160.23 79.4911 1162.66 78.7148 1166.07 78.4962C1167.43 78.4095 1168.26 78.5039 1168.57 78.7794C1168.58 78.8382 1168.6 79.6346 1168.64 81.1686C1168.63 85.6605 1168.7 89.113 1168.86 91.526C1169.01 93.9391 1169.16 95.7323 1169.29 96.9056C1169.42 98.0201 1169.5 98.7539 1169.52 99.107C1169.6 99.3976 1169.72 99.951 1169.89 100.767C1170.12 101.58 1170.4 102.271 1170.73 102.841C1171.73 104.491 1173.13 105.258 1174.96 105.141C1176.84 105.021 1178.43 104.003 1179.73 102.088C1181.08 100.11 1181.7 98.7408 1181.59 97.9794L1181.4 94.9778C1180.71 84.2073 1180.52 78.3987 1180.82 77.5521C1181.08 77.0036 1181.95 76.3861 1183.45 75.6995C1185 75.0092 1186.54 74.6151 1188.07 74.5171C1189.6 74.4191 1190.49 74.4803 1190.74 74.7006L1190.83 78.8612C1191.01 87.3001 1191.25 93.8149 1191.55 98.4056C1191.84 102.996 1192.15 105.902 1192.46 107.123C1193.06 110.039 1194.01 112.343 1195.3 114.033C1195.33 114.622 1194.19 115.641 1191.86 117.09C1189.53 118.539 1187.51 119.319 1185.8 119.428C1185.33 119.458 1184.75 118.609 1184.04 116.881C1183.34 115.153 1182.88 113.469 1182.66 111.829ZM1209.01 55.447C1208.98 56.8082 1209.07 60.5255 1209.28 66.5989C1213.7 66.3162 1215.91 66.2632 1215.92 66.4398C1216.05 68.4408 1215.87 70.2548 1215.38 71.8816C1214.89 73.4495 1214.38 74.2504 1213.85 74.2843L1209.7 74.55C1210.14 83.2681 1210.54 90.364 1210.89 95.8375C1211.23 101.252 1211.55 104.866 1211.85 106.679C1212.4 109.717 1213.76 112.141 1215.95 113.952C1215.99 114.599 1214.9 115.614 1212.69 116.997C1210.53 118.376 1208.45 119.13 1206.45 119.258C1206.27 119.269 1205.9 118.998 1205.33 118.443C1204.82 117.885 1204.23 116.948 1203.56 115.632C1202.94 114.312 1202.5 113.01 1202.24 111.727C1202.04 110.439 1201.69 105.823 1201.18 97.8776C1200.67 89.9321 1200.28 82.4224 1200 75.3484L1195.06 75.7533C1194.75 75.4779 1194.52 74.2219 1194.38 71.9854C1194.23 69.6901 1194.41 68.29 1194.91 67.7852C1196.2 67.6435 1197.76 67.4847 1199.58 67.309C1199.36 63.8954 1199.13 61.694 1198.89 60.7048C1198.65 59.7156 1198.52 59.1327 1198.51 58.9561C1198.47 58.3675 1199.43 57.6266 1201.38 56.7334C1203.39 55.8363 1205.16 55.3388 1206.69 55.2408C1208.22 55.1429 1209 55.2116 1209.01 55.447Z" fill="white"/>
<path d="M63.4386 158.682L73.0614 158.065C77.4167 157.787 80.6942 156.365 82.8939 153.801C85.0936 151.238 86.0785 148.161 85.8486 144.57C85.2946 135.919 80.1326 131.906 70.3626 132.531L61.7992 133.08L63.4386 158.682ZM97.4335 185.669L90.9006 186.087L74.4318 162.853L72.7544 162.961L63.7495 163.537L65.2985 187.727L59.825 188.077L56.0147 128.575L69.4337 127.715C76.3786 127.271 81.6596 128.528 85.2768 131.488C88.949 134.385 90.9698 138.717 91.3391 144.485C91.4777 148.494 90.5799 152.009 88.6458 155.029C86.7117 158.048 83.8363 160.212 80.0197 161.52L97.4335 185.669ZM131.403 138.551L136.789 138.206L139.655 182.965L134.27 183.31L133.755 175.276C131.77 181.195 127.217 184.382 120.096 184.838C115.74 185.117 112.185 184.045 109.429 181.621C106.729 179.135 105.241 175.743 104.966 171.447L102.976 140.371L108.362 140.026L110.255 169.601C110.474 173.015 111.524 175.577 113.407 177.289C115.348 178.996 117.79 179.756 120.733 179.567C124.676 179.315 127.764 177.699 129.996 174.719C132.287 171.736 133.288 167.978 132.998 163.447L131.403 138.551ZM158.826 141.404L160.607 169.213C160.935 174.334 163.483 176.741 168.25 176.436C170.604 176.285 172.562 175.48 174.123 174.021L174.474 179.495C172.838 180.722 170.903 181.408 168.666 181.551C160.191 182.094 155.674 178.01 155.117 169.299L153.353 141.755L146.025 142.224L145.731 137.633L153.059 137.164L152.341 125.952L157.814 125.602L158.532 136.814L171.333 135.994L171.627 140.585L158.826 141.404ZM203.142 179.698C196.844 180.101 191.702 178.244 187.715 174.126C183.729 170.008 181.524 164.653 181.102 158.061C180.684 151.528 182.244 145.903 185.783 141.185C189.322 136.467 194.123 133.914 200.185 133.526C206.836 133.1 212.127 134.977 216.059 139.158C220.045 143.276 222.254 148.689 222.683 155.399C223.109 162.049 221.578 167.673 218.09 172.269C214.658 176.803 209.675 179.279 203.142 179.698ZM200.513 138.646C195.863 138.944 192.328 140.943 189.905 144.644C187.483 148.345 186.432 152.697 186.752 157.7C187.065 162.585 188.688 166.706 191.622 170.064C194.61 173.359 198.341 174.864 202.814 174.577C207.699 174.264 211.356 172.316 213.786 168.733C216.271 165.087 217.354 160.763 217.033 155.76C216.702 150.581 215.161 146.366 212.412 143.114C209.659 139.804 205.692 138.314 200.513 138.646ZM235.098 176.854L231.101 114.438L236.486 114.093L240.483 176.509L235.098 176.854ZM281.945 148.856L281.815 146.825C281.554 142.764 280.199 139.601 277.75 137.335C275.359 135.065 272.25 134.052 268.425 134.297C264.658 134.539 261.594 136.064 259.233 138.875C256.872 141.686 255.643 145.576 255.548 150.546L281.945 148.856ZM285.784 165.896L286.134 171.369C282.716 173.361 278.653 174.508 273.944 174.809C267.294 175.235 261.747 173.522 257.304 169.67C252.917 165.755 250.506 160.413 250.073 153.645C249.613 146.464 251.076 140.697 254.461 136.344C257.846 131.99 262.452 129.627 268.279 129.254C273.753 128.903 278.223 130.42 281.69 133.803C285.157 137.185 287.099 142.143 287.518 148.676C287.646 150.677 287.63 152.274 287.47 153.466L255.865 155.49C256.593 160.407 258.543 164.094 261.714 166.551C264.882 168.948 268.937 169.988 273.881 169.672C278.943 169.348 282.91 168.089 285.784 165.896Z" fill="white"/>
<path d="M1403.53 85.5891C1404.77 104.875 1390 121.544 1370.52 122.792C1351.04 124.039 1334.27 109.389 1333.04 90.1033C1331.8 70.8177 1346.56 54.1483 1366.04 52.9009C1385.53 51.6534 1402.3 66.3035 1403.53 85.5891Z" stroke="white" stroke-width="3.68599"/>
<path d="M1369.81 111.756C1391.3 110.38 1407.63 91.9852 1406.27 70.6397C1404.9 49.2942 1386.35 33.1328 1364.87 34.5086C1343.38 35.8843 1327.05 54.2795 1328.41 75.625C1329.78 96.9705 1348.33 113.132 1369.81 111.756Z" fill="#C218C6" stroke="white" stroke-width="3.68599"/>
<rect x="815.288" y="87.7664" width="59.4908" height="66.3478" rx="12.901" transform="rotate(-3.66396 815.288 87.7664)" fill="#110F0F" stroke="white" stroke-width="3.68599"/>
<rect x="799.541" y="74.0012" width="66.8628" height="73.7198" rx="16.587" transform="rotate(-3.66396 799.541 74.0012)" fill="#110F0F" stroke="white" stroke-width="3.68599"/>
<ellipse cx="444.353" cy="131.378" rx="37.1628" ry="36.8599" transform="rotate(-3.66396 444.353 131.378)" fill="white"/>
<rect x="-7.91992" y="1" width="1569.12" height="140.236" transform="rotate(7.6024 -7.91992 1)" fill="#110F0F"/>
<path d="M198.602 88.489L210.606 89.9994C215.054 90.5931 217.27 90.9501 217.254 91.0703C218.305 83.1959 219.191 77.4715 219.913 73.8971C220.635 70.3226 221.004 68.4752 221.02 68.355C221.036 68.2348 221.497 67.9904 222.403 67.6219C223.369 67.2613 224.661 66.975 226.28 66.7628C227.907 66.4905 229.262 66.4266 230.343 66.571C231.486 66.7234 232.041 66.9199 232.008 67.1603C230.168 75.9082 228.578 85.3012 227.238 95.3395C225.906 105.318 225.216 112.781 225.167 117.73C225.118 122.679 225.979 126.312 227.75 128.629C227.734 128.749 227.394 129.009 226.728 129.41C226.123 129.819 224.694 130.209 222.442 130.582C220.25 130.962 218.222 131.028 216.359 130.779L215.301 130.454C214.312 129.16 213.813 126.707 213.805 123.097C213.866 119.434 214.632 111.858 216.105 100.369C215.091 100.173 211.819 99.7054 206.289 98.9673C200.819 98.2372 197.801 97.9263 197.236 98.0344C196.952 99.7094 196.424 103.432 195.654 109.203C194.892 114.913 194.494 119.724 194.462 123.635C194.374 124.296 193.34 124.709 191.36 124.873C189.372 125.097 187.537 125.097 185.854 124.872C184.231 124.656 183.263 124.343 182.951 123.934C182.69 123.593 183.274 118.073 184.702 107.374L186.122 96.7345C185.437 95.9089 184.72 94.406 183.971 92.2259C183.222 90.0458 182.935 88.2945 183.112 86.9721C183.136 86.7918 184.621 86.8982 187.566 87.2913C188.196 83.0316 188.88 78.1367 189.618 72.6066L189.871 70.7132C188.693 67.6193 188.292 64.6598 188.67 61.8347C188.702 61.5942 188.752 61.448 188.82 61.3959C189.189 61.3839 189.523 61.398 189.824 61.4381C190.124 61.4782 190.785 61.5665 191.807 61.7029C192.889 61.8473 194.364 62.2582 196.231 62.9357C198.107 63.5531 199.583 64.1785 200.661 64.8118C201.739 65.4451 202.258 65.912 202.218 66.2125C201.404 69.1017 200.279 75.9261 198.843 86.6857L198.602 88.489ZM256.862 128.752L257.024 126.846L256.958 126.654C255.219 128.685 253.149 130.214 250.748 131.239C248.408 132.273 246.186 132.649 244.082 132.369C237.77 131.526 234.817 126.146 235.224 116.228C235.312 114.649 235.789 110.613 236.656 104.122C237.522 97.6299 238.306 93.819 239.008 92.689C240.739 91.6353 243.348 91.3411 246.834 91.8064C248.217 91.9909 249.038 92.2535 249.299 92.5942C249.291 92.6543 249.152 93.4618 248.884 95.0166C247.973 99.5448 247.354 103.041 247.025 105.506C246.696 107.97 246.481 109.807 246.381 111.018C246.288 112.168 246.218 112.923 246.17 113.284C246.19 113.592 246.204 114.175 246.212 115.033C246.28 115.899 246.424 116.652 246.644 117.293C247.313 119.157 248.58 120.213 250.443 120.462C252.366 120.718 254.174 120.011 255.865 118.34C257.625 116.617 258.527 115.361 258.571 114.572L258.98 111.506C260.448 100.506 261.419 94.6095 261.892 93.8161C262.264 93.3153 263.272 92.8686 264.915 92.4761C266.619 92.0916 268.252 92.0037 269.814 92.2123C271.377 92.4209 272.263 92.6614 272.471 92.9339L271.725 97.1476C270.217 105.695 269.15 112.313 268.525 117.002C267.899 121.69 267.622 124.682 267.694 125.976C267.714 129.038 268.204 131.55 269.166 133.514C269.085 134.115 267.725 134.912 265.084 135.906C262.443 136.899 260.251 137.28 258.508 137.047C258.027 136.983 257.606 136.009 257.246 134.126C256.885 132.242 256.757 130.451 256.862 128.752ZM276.675 123.504L279.232 102.279C279.746 98.4322 280.173 96.3785 280.513 96.1181C281.323 95.5531 282.515 95.1005 284.09 94.7601C285.673 94.3595 287.156 94.2515 288.538 94.4361C289.921 94.6206 290.596 94.8331 290.564 95.0735C289.971 97.6862 289.582 99.6839 289.397 101.066C289.213 102.449 289.18 103.148 289.301 103.164C289.421 103.18 289.617 103.084 289.89 102.876C290.17 102.607 290.647 102.243 291.321 101.782C292.062 101.269 293.338 100.644 295.15 99.907C297.029 99.1178 298.691 98.8195 300.133 99.012C304.04 99.5335 306.753 101.67 308.271 105.421C312.339 101.069 316.447 99.1705 320.595 99.7241C324.321 100.222 326.784 102.171 327.981 105.574C329.191 109.345 329.71 113.024 329.537 116.61C329.208 121.828 328.674 127.202 327.936 132.732L326.167 143.233C326.111 143.654 325.067 143.912 323.035 144.008C320.995 144.164 319.374 144.162 318.172 144.001L315.347 143.165C316.803 137.303 317.775 132.538 318.264 128.871C318.754 125.205 319.043 122.582 319.131 121.003C319.288 119.372 319.29 117.751 319.138 116.14C318.994 114.469 318.575 113.251 317.882 112.485C317.257 111.668 316.373 111.183 315.231 111.03C314.089 110.878 313.023 111.072 312.033 111.613C311.051 112.094 310.31 112.606 309.809 113.151C309.368 113.704 309.136 114.071 309.112 114.251C309.035 116.199 308.532 120.659 307.601 127.632L306.29 134.706C306.225 135.187 305.208 135.48 303.236 135.584C301.264 135.688 299.677 135.659 298.475 135.499L295.65 134.663C296.841 129.866 297.717 125.364 298.279 121.157C298.848 116.889 299.005 113.881 298.749 112.134C298.561 110.335 297.505 109.307 295.581 109.05C293.658 108.793 291.907 109.538 290.327 111.285C288.748 113.032 287.891 114.417 287.754 115.439L287.501 117.332L286.316 126.901C285.53 132.792 284.996 135.872 284.716 136.14C283.02 137.382 279.768 137.682 274.96 137.041C274.479 136.976 274.25 136.854 274.275 136.674C275.04 134.145 275.84 129.755 276.675 123.504ZM369.738 126.84C368.736 134.354 368.24 138.754 368.252 140.04C368.292 143.41 368.996 145.921 370.367 147.572C370.279 148.233 368.944 149.065 366.363 150.066C363.842 151.076 361.62 151.452 359.697 151.195C359.156 151.123 358.693 150.235 358.308 148.532C357.916 146.889 357.712 145.669 357.696 144.871C357.74 144.082 357.732 143.683 357.672 143.675L357.377 143.819C353.855 145.919 349.959 146.684 345.692 146.114C341.424 145.545 338.254 144.081 336.183 141.725C334.179 139.316 333.402 136.429 333.852 133.063C334.301 129.696 335.399 126.968 337.147 124.876C338.962 122.732 340.942 121.192 343.086 120.254C345.23 119.317 347.553 118.648 350.053 118.247C353.881 117.535 356.846 117.319 358.95 117.6L359.142 117.533C359.535 114.588 356.005 112.618 348.552 111.623C345.606 111.23 343.396 111.057 341.921 111.105L341.831 111.093C341.992 109.891 342.553 108.436 343.515 106.729C344.537 105.03 345.325 103.943 345.878 103.466C346.491 102.997 348.691 103.015 352.478 103.521C359.33 104.435 364.203 106.432 367.096 109.51C369.997 112.528 371.082 116.772 370.352 122.242L369.738 126.84ZM358.96 131.275L359.417 127.848C359.594 126.526 359.652 125.861 359.592 125.853C355.565 125.315 351.938 125.902 348.712 127.613C346.672 128.686 345.519 130.215 345.255 132.198C345.086 133.461 345.397 134.573 346.186 135.535C346.975 136.497 348.272 137.098 350.075 137.339C351.938 137.587 353.784 137.283 355.611 136.426C357.499 135.576 358.615 133.859 358.96 131.275ZM389.868 129.343L389.513 132.691L388.598 139.544C387.74 145.975 387.174 149.295 386.901 149.504C386.016 150.181 384.583 150.601 382.603 150.765C380.624 150.93 379.003 150.927 377.74 150.759C376.538 150.598 375.949 150.428 375.973 150.248C376.755 147.599 377.559 143.179 378.386 136.988L380.823 116.665C381.32 112.938 381.739 110.944 382.08 110.684C382.829 110.111 384.048 109.692 385.735 109.428C387.43 109.104 388.969 109.034 390.351 109.218C391.794 109.411 392.495 109.657 392.455 109.958C392.082 111.376 391.799 112.807 391.607 114.25C391.414 115.692 391.408 116.426 391.589 116.45L391.883 116.305C392.24 115.925 392.759 115.474 393.44 114.953C394.13 114.372 395.504 113.699 397.564 112.934C399.692 112.117 401.628 111.824 403.371 112.057C405.174 112.298 406.633 112.829 407.747 113.651C408.929 114.42 409.85 115.308 410.511 116.314C411.172 117.32 411.661 118.7 411.978 120.456C412.354 122.219 412.596 123.842 412.704 125.325C412.812 126.808 412.796 128.763 412.655 131.192C412.394 134.522 411.923 138.741 411.241 143.851L409.562 154.364C409.506 154.785 408.462 155.043 406.431 155.139C404.391 155.295 402.77 155.293 401.568 155.132L398.652 154.284C399.976 148.955 400.974 143.765 401.648 138.716C402.33 133.607 402.509 129.746 402.185 127.133C401.868 124.46 400.718 122.991 398.735 122.726C396.751 122.461 395.056 122.786 393.649 123.699C392.303 124.621 391.377 125.598 390.872 126.632L390.036 128.081L389.868 129.343Z" fill="white"/>
<path d="M688.574 137.46C687.629 137.211 686.525 137.003 685.262 136.834C684.06 136.674 682.541 136.593 680.706 136.593C678.931 136.601 677.045 136.747 675.05 137.031C673.122 137.263 671.485 137.84 670.138 138.762C668.792 139.683 668.014 140.925 667.805 142.488C667.605 143.991 668.326 145.464 669.969 146.907C671.68 148.297 673.759 149.676 676.208 151.043C678.664 152.35 681.1 153.807 683.517 155.414C685.993 157.029 687.968 159.19 689.443 161.895C690.985 164.548 691.528 167.588 691.07 171.014C690.26 177.085 686.655 181.865 680.255 185.355C673.922 188.792 666.338 189.921 657.502 188.742C653.054 188.148 649.78 187.466 647.68 186.697C647.212 186.084 647.37 182.832 648.157 176.941C648.951 170.99 649.549 167.43 649.949 166.259C650.202 165.743 651.342 165.222 653.37 164.697C655.398 164.172 657.313 164.03 659.117 164.271C658.17 171.364 658.348 175.762 659.65 177.465C660.171 178.147 661.273 178.6 662.956 178.824C666.803 179.338 670.283 178.701 673.397 176.914C676.571 175.135 678.355 172.773 678.748 169.828C679.013 167.844 678.314 165.977 676.651 164.225C674.988 162.474 672.876 160.877 670.316 159.434C667.823 157.939 665.335 156.413 662.851 154.858C660.374 153.243 658.349 151.229 656.774 148.816C655.2 146.404 654.609 143.725 655.002 140.779C655.588 136.391 658.736 132.743 664.447 129.834C670.226 126.874 678.105 126.059 688.083 127.391C690.427 127.704 691.729 128.031 691.99 128.372C692.026 128.56 691.996 129.015 691.899 129.736C691.811 130.397 691.424 131.692 690.739 133.619C690.053 135.546 689.332 136.827 688.574 137.46ZM729.72 174.888C728.717 182.401 728.222 186.801 728.233 188.088C728.273 191.458 728.978 193.969 730.348 195.62C730.26 196.281 728.925 197.112 726.345 198.114C723.824 199.123 721.602 199.5 719.678 199.243C719.137 199.171 718.674 198.283 718.29 196.58C717.897 194.937 717.693 193.717 717.677 192.919C717.722 192.13 717.714 191.731 717.653 191.723L717.359 191.867C713.836 193.967 709.941 194.731 705.673 194.162C701.405 193.592 698.236 192.129 696.164 189.772C694.161 187.364 693.384 184.476 693.833 181.11C694.282 177.744 695.381 175.015 697.128 172.924C698.944 170.78 700.924 169.239 703.068 168.302C705.212 167.364 707.534 166.696 710.035 166.295C713.862 165.582 716.828 165.366 718.931 165.647L719.124 165.581C719.517 162.636 715.987 160.666 708.533 159.671C705.588 159.278 703.378 159.105 701.903 159.153L701.813 159.141C701.973 157.939 702.534 156.484 703.496 154.777C704.519 153.078 705.306 151.99 705.859 151.513C706.472 151.045 708.672 151.063 712.459 151.568C719.312 152.483 724.185 154.479 727.077 157.557C729.978 160.575 731.064 164.819 730.334 170.289L729.72 174.888ZM718.942 179.322L719.399 175.896C719.575 174.574 719.634 173.908 719.573 173.9C715.546 173.363 711.919 173.949 708.693 175.66C706.653 176.734 705.501 178.263 705.236 180.246C705.068 181.508 705.378 182.621 706.167 183.582C706.957 184.544 708.253 185.146 710.056 185.386C711.92 185.635 713.765 185.331 715.593 184.473C717.48 183.624 718.597 181.907 718.942 179.322ZM750.927 162.76L746.564 198.885C746.252 201.23 745.995 202.694 745.794 203.279C743.286 204.658 740.138 205.094 736.351 204.589L733.886 203.801C735.679 197.249 737.774 184.987 740.173 167.014C740.775 162.506 741.186 159.196 741.407 157.084L737.415 156.735C737.155 156.394 737.181 155.052 737.494 152.707C737.807 150.363 738.27 148.957 738.883 148.488C739.973 148.572 741.153 148.668 742.424 148.777L743.699 137.843C743.708 136.865 746.144 135.569 751.009 133.955C755.875 132.34 759.75 131.726 762.635 132.111C762.996 132.159 763.354 132.91 763.711 134.365C764.135 135.768 764.295 136.86 764.191 137.641C764.095 138.363 764.005 138.809 763.92 138.982C763.74 138.958 762.915 139.184 761.444 139.661C759.981 140.077 758.43 140.696 756.791 141.517C755.16 142.279 754.266 143.016 754.11 143.729C753.661 145.26 753.196 147.37 752.714 150.059L753.075 150.107C757.944 150.756 760.366 151.172 760.342 151.352C759.965 154.177 759.081 156.445 757.69 158.156C757.173 158.821 756.765 159.134 756.464 159.094C754.557 158.717 752.912 158.436 751.529 158.251L750.927 162.76ZM786.157 173.702C786.39 171.959 785.574 170.963 783.711 170.714C781.246 170.385 778.914 171.359 776.714 173.635C774.513 175.911 773.176 178.822 772.703 182.368C772.591 183.21 772.655 183.647 772.895 183.679C775.067 183.907 777.726 183.008 780.872 180.981C784.026 178.893 785.788 176.467 786.157 173.702ZM790.174 203.421C787.946 204.531 783.857 204.689 777.906 203.895C771.955 203.1 767.623 200.717 764.911 196.746C762.198 192.774 761.235 187.843 762.022 181.952C762.816 176.001 765.395 171.115 769.76 167.292C774.192 163.418 779.865 161.942 786.778 162.864C789.603 163.241 792.087 164.338 794.231 166.153C796.435 167.977 797.284 170.782 796.778 174.569C796.281 178.296 794.135 181.772 790.339 184.997C786.604 188.231 781.783 190.432 775.876 191.602C775.779 192.323 776.421 193.02 777.799 193.694C779.246 194.315 780.69 194.722 782.133 194.915C786.701 195.524 790.416 195.194 793.277 193.924C793.346 193.872 793.44 193.854 793.56 193.87C793.68 193.886 793.664 194.465 793.512 195.607C793.046 199.094 791.934 201.698 790.174 203.421ZM818.081 147.036C817.776 148.403 817.121 152.17 816.114 158.337C820.622 158.939 822.864 159.33 822.84 159.51C822.567 161.554 822.022 163.347 821.204 164.89C820.395 166.372 819.719 167.078 819.178 167.005L814.941 166.44C813.633 175.32 812.606 182.555 811.86 188.145C811.122 193.675 810.719 197.384 810.65 199.271C810.594 202.445 811.485 205.164 813.324 207.429C813.236 208.09 811.935 208.895 809.423 209.845C806.97 210.802 804.722 211.145 802.678 210.872C802.498 210.848 802.177 210.499 801.716 209.826C801.316 209.16 800.907 208.096 800.491 206.634C800.134 205.179 799.954 203.778 799.95 202.432C800.007 201.093 800.576 196.367 801.659 188.252C802.742 180.137 803.855 172.485 804.999 165.296L799.937 164.713C799.677 164.372 799.699 163.059 800.004 160.775C800.317 158.431 800.776 157.055 801.381 156.646C802.711 156.762 804.312 156.915 806.184 157.103C806.649 153.617 806.86 151.351 806.816 150.305C806.772 149.259 806.762 148.646 806.786 148.466C806.866 147.864 807.98 147.31 810.128 146.801C812.337 146.3 814.222 146.154 815.785 146.363C817.348 146.572 818.113 146.796 818.081 147.036ZM855.43 186.527L852.319 210.523C851.694 215.211 850.505 219.305 848.753 222.803C847.062 226.309 845.182 228.934 843.114 230.677C841.106 232.428 838.876 233.782 836.423 234.739C832.415 236.346 828.488 236.892 824.641 236.379C824.461 236.355 824.16 235.856 823.74 234.882C823.319 233.908 822.972 232.607 822.7 230.98C822.42 229.414 822.368 227.969 822.544 226.646C824.829 226.951 827.173 226.805 829.577 226.209C831.974 225.672 833.691 224.953 834.729 224.051C835.759 223.21 836.825 222.098 837.928 220.716C840.184 218.019 841.754 213.365 842.636 206.753L842.895 204.126C842.943 203.765 842.907 203.577 842.787 203.561C842.667 203.545 842.534 203.619 842.39 203.783C842.246 203.947 842.063 204.168 841.843 204.444C841.631 204.661 841.116 205.081 840.298 205.706C839.548 206.279 838.747 206.784 837.893 207.221C835.597 208.383 833.367 208.819 831.203 208.53C829.099 208.25 827.452 207.754 826.262 207.045C825.132 206.344 824.202 205.516 823.473 204.562C822.804 203.616 822.299 202.356 821.959 200.781C821.626 199.146 821.398 197.647 821.274 196.284C821.15 194.922 821.18 193.091 821.365 190.79C821.55 187.573 821.871 184.25 822.328 180.824C822.962 176.076 823.72 172.231 824.602 169.289L825.041 168.063C825.097 167.642 826.055 167.342 827.914 167.162C829.834 166.99 831.395 166.984 832.597 167.144L835.422 167.98C833.967 173.843 832.966 178.818 832.421 182.905C831.875 186.993 831.842 190.445 832.323 193.262C832.803 196.08 834.036 197.621 836.019 197.885C838.003 198.15 839.642 197.788 840.936 196.798C842.299 195.756 843.207 194.685 843.66 193.583L844.339 191.93C844.724 188.127 845.206 184.061 845.784 179.733C846.369 175.345 846.832 173.021 847.173 172.761C848.059 172.084 849.491 171.663 851.471 171.499C853.511 171.343 855.132 171.345 856.334 171.506C857.536 171.666 858.125 171.837 858.101 172.017C857.243 174.778 856.353 179.615 855.43 186.527Z" fill="white"/>
<path d="M1133.03 259.553C1133.06 259.741 1133.02 260.316 1132.89 261.278C1132.76 262.24 1132.23 263.668 1131.31 265.564C1130.43 267.527 1129.69 268.713 1129.09 269.122C1128.87 269.398 1127.88 269.48 1126.12 269.368C1120.65 268.638 1115.79 267.194 1111.55 265.038C1107.38 262.889 1104.02 260.33 1101.48 257.36C1098.99 254.459 1096.98 251.162 1095.45 247.471C1092.7 240.619 1091.86 233.165 1092.93 225.11C1093.93 217.596 1097.01 210.604 1102.16 204.133C1104.89 200.583 1108.06 197.517 1111.64 194.937C1115.29 192.365 1119.73 190.48 1124.97 189.283C1130.28 188.033 1135.93 187.809 1141.95 188.612C1148.02 189.422 1153.34 191.02 1157.92 193.405C1162.49 195.79 1166.07 198.531 1168.66 201.629C1171.3 204.735 1173.38 208.194 1174.89 212.005C1177.51 218.962 1178.32 226.168 1177.33 233.621C1176.38 240.714 1173.66 247.141 1169.15 252.903C1166.93 255.788 1164.13 257.984 1160.75 259.49C1157.36 261.057 1153.71 261.579 1149.8 261.058C1146.5 260.617 1143.7 259.111 1141.41 256.542C1139.4 254.194 1138.55 250.93 1138.87 246.75C1138.88 246.63 1138.86 246.566 1138.8 246.558C1138.74 246.55 1138.64 246.598 1138.5 246.702C1134.98 248.801 1131.09 249.566 1126.82 248.997C1122.55 248.427 1119.38 246.964 1117.31 244.607C1115.3 242.259 1114.52 239.401 1114.97 236.035C1115.42 232.669 1116.51 229.94 1118.26 227.849C1120.08 225.705 1122.06 224.164 1124.2 223.227C1126.41 222.297 1128.73 221.598 1131.18 221.13C1134.95 220.409 1137.94 220.197 1140.17 220.494L1140.27 220.416C1140.66 217.47 1137.13 215.5 1129.68 214.506C1126.73 214.112 1124.52 213.94 1123.05 213.988L1122.96 213.976C1123.12 212.773 1123.71 211.323 1124.73 209.624C1125.76 207.865 1126.62 206.725 1127.3 206.204C1127.32 206.024 1128.07 205.97 1129.52 206.042C1130.98 206.114 1132.34 206.235 1133.61 206.403C1140.52 207.326 1145.42 209.356 1148.3 212.494C1151.19 215.572 1152.26 219.937 1151.51 225.587L1151.11 227.919C1150.44 232.479 1149.9 236.262 1149.5 239.268C1149.1 242.273 1148.88 244.385 1148.84 245.603C1148.78 249.266 1150.25 251.298 1153.26 251.699C1155.3 251.972 1157.17 251.487 1158.86 250.245C1160.62 249.011 1162.04 247.304 1163.13 245.124C1165.15 240.929 1166.43 236.878 1166.95 232.97C1168.36 222.451 1166.55 214.166 1161.55 208.114C1156.61 202.01 1149.7 198.365 1140.8 197.177C1135.09 196.415 1129.6 196.997 1124.33 198.924C1119.05 200.851 1114.47 204.217 1110.59 209.021C1106.7 213.825 1104.3 219.684 1103.38 226.596C1102.13 235.973 1104.2 243.836 1109.59 250.184C1111.5 252.397 1114.05 254.329 1117.26 255.98C1120.47 257.632 1123.63 258.666 1126.76 259.083C1129.88 259.5 1131.97 259.657 1133.03 259.553ZM1126.38 235.081C1126.21 236.343 1126.52 237.455 1127.31 238.417C1128.1 239.379 1129.22 239.956 1130.66 240.149C1132.16 240.349 1133.45 240.368 1134.51 240.203C1135.63 240.047 1136.78 239.466 1137.95 238.461C1139.13 237.455 1139.83 236.05 1140.08 234.247L1140.53 230.821C1140.71 229.499 1140.77 228.833 1140.71 228.825C1138.3 228.504 1135.97 228.59 1133.7 229.083C1129.21 230.136 1126.78 232.136 1126.38 235.081ZM1217.21 229.309C1224.4 229.595 1229.82 228.636 1233.47 226.432C1237.2 224.176 1239.24 221.756 1239.58 219.172C1239.94 216.527 1238.9 214.431 1236.48 212.884C1234.06 211.276 1230.87 210.208 1226.9 209.678C1224.8 209.398 1222.64 209.293 1220.43 209.365C1219.72 211.901 1218.65 218.55 1217.21 229.309ZM1214.05 260.548C1213.3 261.121 1211.91 261.456 1209.88 261.551C1207.84 261.707 1206.16 261.697 1204.84 261.521C1203.52 261.344 1202.4 261.011 1201.49 260.522L1208.97 208.57C1208.32 207.504 1207.75 205.807 1207.26 203.478C1206.84 201.158 1206.66 199.757 1206.72 199.277C1206.8 198.736 1206.9 198.413 1207.04 198.309C1207.18 198.145 1209.1 198.217 1212.79 198.526C1216.55 198.783 1220.32 199.164 1224.11 199.67C1227.89 200.175 1231.23 200.835 1234.12 201.649C1237.01 202.462 1239.98 203.623 1243.02 205.13C1246.07 206.577 1248.37 208.567 1249.93 211.1C1251.49 213.633 1252.03 216.703 1251.54 220.309C1251.07 223.856 1249.37 226.993 1246.43 229.722C1243.5 232.45 1239.73 234.578 1235.12 236.104C1234.99 237.066 1236.31 241.646 1239.07 249.846C1241.84 257.985 1244.18 263.315 1246.11 265.836C1246.16 265.904 1246.18 265.999 1246.16 266.119C1246.14 266.299 1245.62 266.535 1244.6 266.828C1241.79 267.737 1238.85 267.987 1235.78 267.578L1233.55 267.097C1232.41 265.598 1230.68 260.901 1228.37 253.006C1226.12 245.119 1224.92 240.31 1224.79 238.579C1224.01 238.904 1221.07 239.154 1215.97 239.329C1214.48 251.427 1213.84 258.5 1214.05 260.548ZM1274.47 264.574L1274.63 262.668L1274.56 262.476C1272.82 264.507 1270.75 266.036 1268.35 267.061C1266.01 268.095 1263.79 268.471 1261.69 268.19C1255.37 267.348 1252.42 261.968 1252.83 252.05C1252.92 250.471 1253.39 246.435 1254.26 239.943C1255.13 233.452 1255.91 229.641 1256.61 228.511C1258.34 227.457 1260.95 227.163 1264.44 227.628C1265.82 227.813 1266.64 228.075 1266.9 228.416C1266.9 228.476 1266.76 229.284 1266.49 230.838C1265.58 235.367 1264.96 238.863 1264.63 241.327C1264.3 243.792 1264.09 245.629 1263.99 246.839C1263.89 247.99 1263.82 248.745 1263.77 249.106C1263.79 249.414 1263.81 249.997 1263.82 250.855C1263.88 251.72 1264.03 252.474 1264.25 253.115C1264.92 254.979 1266.18 256.035 1268.05 256.283C1269.97 256.54 1271.78 255.833 1273.47 254.162C1275.23 252.439 1276.13 251.183 1276.18 250.394L1276.58 247.328C1278.05 236.328 1279.02 230.431 1279.5 229.638C1279.87 229.137 1280.88 228.69 1282.52 228.298C1284.22 227.913 1285.86 227.825 1287.42 228.034C1288.98 228.243 1289.87 228.483 1290.08 228.756L1289.33 232.969C1287.82 241.517 1286.75 248.135 1286.13 252.823C1285.5 257.512 1285.23 260.503 1285.3 261.798C1285.32 264.859 1285.81 267.372 1286.77 269.336C1286.69 269.937 1285.33 270.734 1282.69 271.728C1280.05 272.721 1277.86 273.102 1276.11 272.869C1275.63 272.805 1275.21 271.831 1274.85 269.947C1274.49 268.064 1274.36 266.273 1274.47 264.574ZM1312.37 213.01C1312.06 214.377 1311.41 218.144 1310.4 224.311C1314.91 224.912 1317.15 225.303 1317.13 225.484C1316.86 227.528 1316.31 229.321 1315.49 230.863C1314.68 232.346 1314.01 233.051 1313.47 232.979L1309.23 232.413C1307.92 241.294 1306.89 248.529 1306.15 254.119C1305.41 259.649 1305.01 263.358 1304.94 265.245C1304.88 268.419 1305.77 271.138 1307.61 273.403C1307.52 274.064 1306.22 274.869 1303.71 275.819C1301.26 276.776 1299.01 277.118 1296.97 276.845C1296.79 276.821 1296.47 276.473 1296.01 275.799C1295.6 275.134 1295.2 274.07 1294.78 272.607C1294.42 271.153 1294.24 269.752 1294.24 268.406C1294.3 267.067 1294.86 262.341 1295.95 254.226C1297.03 246.111 1298.14 238.459 1299.29 231.27L1294.23 230.686C1293.97 230.346 1293.99 229.033 1294.29 226.749C1294.61 224.405 1295.06 223.028 1295.67 222.62C1297 222.736 1298.6 222.889 1300.47 223.077C1300.94 219.591 1301.15 217.325 1301.1 216.279C1301.06 215.233 1301.05 214.62 1301.07 214.439C1301.15 213.838 1302.27 213.283 1304.42 212.775C1306.63 212.274 1308.51 212.128 1310.07 212.337C1311.64 212.545 1312.4 212.77 1312.37 213.01ZM1352.92 259.444C1352.16 265.155 1349.75 269.881 1345.71 273.623C1341.73 277.313 1336.76 278.761 1330.81 277.967C1324.92 277.181 1320.54 274.73 1317.66 270.614C1314.78 266.498 1313.73 261.525 1314.51 255.694C1315.3 249.803 1318.07 244.881 1322.82 240.926C1327.63 236.919 1333.59 235.389 1340.68 236.336C1343.55 236.841 1345.09 237.23 1345.3 237.503C1345.51 237.775 1345.55 238.362 1345.43 239.264C1345.31 240.166 1345.09 241.145 1344.76 242.203C1345.66 242.324 1346.73 243.017 1347.97 244.284C1349.28 245.498 1350.31 246.706 1351.07 247.909C1351.82 249.111 1352.4 250.748 1352.8 252.82C1353.2 254.832 1353.24 257.04 1352.92 259.444ZM1340.6 251.376C1339.34 250.289 1338.05 249.658 1336.72 249.482L1336 249.385C1335.91 249.129 1335.92 248.61 1336.03 247.828C1336.13 247.047 1336.32 246.308 1336.6 245.61C1334.13 245.282 1331.67 246.085 1329.21 248.02C1326.81 249.963 1325.34 252.918 1324.81 256.886C1324.19 261.574 1325.26 265.021 1328.02 267.225C1329.07 268.099 1330.58 268.668 1332.57 268.933C1334.61 269.206 1336.63 268.527 1338.62 266.896C1340.67 265.273 1341.94 262.628 1342.43 258.962C1342.92 255.295 1342.31 252.766 1340.6 251.376ZM1359.37 266.362L1364.09 233.771C1364.73 229.022 1365.09 225.798 1365.2 224.099C1365.3 222.4 1365.36 221.491 1365.38 221.37C1365.46 220.769 1366.54 220.21 1368.63 219.694C1370.78 219.185 1372.64 219.035 1374.2 219.244C1375.76 219.452 1376.53 219.677 1376.49 219.917C1375.9 222.101 1374.7 229.895 1372.91 243.3L1369.79 265.366C1369.23 269.513 1368.95 272.076 1368.94 273.054C1368.89 275.739 1369.44 278.259 1370.6 280.616C1370.52 281.217 1369.15 282.014 1366.51 283.008C1363.87 284.001 1361.68 284.382 1359.94 284.149C1359.46 284.085 1359.04 283.111 1358.68 281.227C1358.31 279.344 1358.16 277.733 1358.22 276.394C1358.28 275.056 1358.66 271.712 1359.37 266.362ZM1402.4 255.953C1402.63 254.21 1401.81 253.214 1399.95 252.965C1397.49 252.636 1395.15 253.609 1392.95 255.885C1390.75 258.161 1389.42 261.072 1388.94 264.619C1388.83 265.46 1388.89 265.897 1389.13 265.929C1391.31 266.158 1393.97 265.259 1397.11 263.231C1400.27 261.144 1402.03 258.718 1402.4 255.953ZM1406.41 285.672C1404.19 286.782 1400.1 286.939 1394.14 286.145C1388.19 285.351 1383.86 282.968 1381.15 278.996C1378.44 275.025 1377.47 270.093 1378.26 264.203C1379.05 258.252 1381.63 253.365 1386 249.543C1390.43 245.668 1396.1 244.192 1403.02 245.115C1405.84 245.492 1408.33 246.588 1410.47 248.404C1412.67 250.228 1413.52 253.033 1413.02 256.82C1412.52 260.547 1410.37 264.023 1406.58 267.248C1402.84 270.482 1398.02 272.683 1392.11 273.852C1392.02 274.574 1392.66 275.271 1394.04 275.944C1395.48 276.566 1396.93 276.973 1398.37 277.165C1402.94 277.775 1406.66 277.445 1409.52 276.175C1409.58 276.123 1409.68 276.105 1409.8 276.121C1409.92 276.137 1409.9 276.716 1409.75 277.858C1409.29 281.344 1408.17 283.949 1406.41 285.672Z" fill="white"/>
<path d="M557.472 162.5C554.841 182.211 536.73 196.057 517.018 193.426C497.307 190.795 483.461 172.683 486.092 152.972C488.723 133.261 506.835 119.415 526.546 122.046C546.257 124.677 560.103 142.789 557.472 162.5Z" stroke="#B9C628" stroke-width="3.79015"/>
<path d="M561.483 132.446C558.852 152.157 540.741 166.003 521.03 163.372C501.319 160.741 487.473 142.63 490.103 122.919C492.734 103.208 510.846 89.3615 530.557 91.9923C550.268 94.6232 564.114 112.735 561.483 132.446Z" stroke="#B9C628" stroke-width="3.79015"/>
<path d="M518.522 182.157C540.308 185.065 560.327 169.761 563.234 147.976C566.142 126.19 550.838 106.172 529.053 103.264C507.267 100.356 487.248 115.66 484.341 137.446C481.433 159.231 496.737 179.25 518.522 182.157Z" fill="#181FC6" stroke="white" stroke-width="3.79015"/>
<rect x="40.1631" y="41.8301" width="64.4326" height="72.0129" rx="15.1606" transform="rotate(7.6024 40.1631 41.8301)" fill="#B9C628"/>
<path d="M1021.57 209.147C1018.94 228.858 1000.83 242.704 981.116 240.073C961.405 237.443 947.558 219.331 950.189 199.62C952.82 179.909 970.932 166.063 990.643 168.693C1010.35 171.324 1024.2 189.436 1021.57 209.147Z" stroke="#9747FF" stroke-width="3.79015"/>
</g>
<defs>
<clipPath id="clip0_40_1269">
<rect width="1573.88" height="346.915" fill="white" transform="translate(-26.4728 0.680176)"/>
</clipPath>
</defs>
</svg>
