<svg width="1545" height="241" viewBox="0 0 1545 241" fill="none" xmlns="http://www.w3.org/2000/svg">
<g clip-path="url(#clip0_11_533)">
<rect x="0.590088" y="101.042" width="1538.54" height="136.382" transform="rotate(-3.66396 0.590088 101.042)" fill="#110F0F"/>
<path d="M627.193 90.9505C627.566 96.7772 626.958 104.824 625.37 115.09C623.778 125.297 622.044 134.214 620.169 141.839C618.293 149.465 617.023 153.624 616.358 154.316C615.697 155.068 614.089 155.791 611.533 156.487C609.036 157.179 607.111 157.568 605.757 157.654C604.403 157.741 603.721 157.696 603.71 157.52C603.562 157.056 602.81 154.091 601.456 148.622C597.522 133.332 595.319 125.229 594.846 124.313C594.37 123.339 594.073 122.856 593.956 122.864L593.548 123.422C592.31 127.165 590.999 132.981 589.613 140.871C588.282 148.698 587.652 153.17 587.724 154.288C587.739 154.524 587.201 154.883 586.109 155.367C583.12 156.681 580.154 157.432 577.211 157.621C576.564 157.662 576.146 157.6 575.958 157.435C574.268 155.948 571.271 147.453 566.969 131.949C562.722 116.383 560.393 105.393 559.982 98.9775C559.974 98.8597 560.254 98.6055 560.82 98.2147C562.757 97.086 564.904 96.4757 567.262 96.3838C569.675 96.2293 570.885 96.2109 570.893 96.3286C571.795 103.953 573.165 111.962 575.002 120.354C576.895 128.684 578.559 134.369 579.995 137.409C580.139 137.813 580.27 138.012 580.387 138.004C580.564 137.993 580.727 137.776 580.878 137.352C584.509 118.386 586.819 108.31 587.806 107.124C589.872 106.164 592.818 105.562 596.644 105.317C598.77 105.299 599.927 105.373 600.115 105.538C600.303 105.703 601.05 108.137 602.356 112.841C603.658 117.485 605.082 122.653 606.628 128.346C608.171 133.979 609.098 137.377 609.409 138.539C609.774 139.639 610.153 139.555 610.545 138.289C611.368 135.459 612.311 130.346 613.374 122.95C614.437 115.554 614.761 108.619 614.347 102.145C614.305 101.497 613.707 100.915 612.551 100.398C611.45 99.8184 610.337 99.5056 609.211 99.4595C609.141 99.2867 609.089 98.9355 609.055 98.4058C609.017 97.8172 609.082 96.9857 609.25 95.9112C609.472 94.7741 609.666 94.1117 609.831 93.9238C615.097 92.1683 620.407 91.1191 625.763 90.7761C626.712 90.8335 627.189 90.8916 627.193 90.9505ZM654.979 121.793C654.87 120.086 653.903 119.291 652.079 119.408C649.666 119.562 647.626 120.934 645.96 123.522C644.293 126.111 643.572 129.142 643.794 132.614C643.847 133.438 643.991 133.843 644.226 133.828C646.341 133.633 648.706 132.27 651.322 129.739C653.934 127.149 655.153 124.5 654.979 121.793ZM664.458 149.375C662.543 150.856 658.673 151.784 652.846 152.157C647.019 152.53 642.435 151.08 639.094 147.808C635.752 144.535 633.896 140.015 633.527 134.247C633.154 128.42 634.686 123.269 638.122 118.794C641.614 114.257 646.744 111.771 653.512 111.338C656.278 111.161 658.856 111.734 661.246 113.059C663.694 114.379 665.037 116.893 665.274 120.601C665.508 124.25 664.121 127.974 661.114 131.771C658.166 135.565 653.986 138.58 648.574 140.818C648.619 141.524 649.363 142.068 650.806 142.448C652.304 142.766 653.759 142.88 655.171 142.789C659.644 142.503 663.125 141.482 665.613 139.727C665.668 139.664 665.754 139.629 665.872 139.622C665.99 139.614 666.084 140.17 666.156 141.288C666.375 144.701 665.808 147.397 664.458 149.375ZM687.897 87.8611C689.486 87.7593 690.734 88.3295 691.641 89.5715C692.606 90.8098 693.157 92.4884 693.293 94.6071C693.429 96.7259 693.09 98.816 692.276 100.877C691.462 102.939 690.613 104.441 689.728 105.384C688.843 106.327 688.047 106.821 687.341 106.867C686.693 106.908 686.003 106.746 685.271 106.379C684.597 106.008 684.127 105.595 683.862 105.139C686.39 103.086 687.723 100.844 687.863 98.412C684.626 98.6193 682.893 96.9278 682.663 93.3377C682.683 91.7999 683.162 90.5281 684.103 89.5224C685.043 88.5166 686.308 87.9629 687.897 87.8611ZM703.13 134.931L701.67 114.902C701.448 111.43 701.447 109.568 701.667 109.318C702.273 108.629 703.356 107.998 704.915 107.426C706.47 106.794 707.924 106.435 709.278 106.348C710.69 106.258 711.406 106.36 711.425 106.654C711.35 108.255 711.379 110.085 711.51 112.145C711.639 114.146 711.762 115.143 711.879 115.135C711.997 115.127 712.111 115.061 712.221 114.936C712.327 114.752 712.489 114.505 712.706 114.196C712.977 113.824 713.499 113.199 714.27 112.323C715.1 111.442 715.996 110.675 716.959 110.023C719.384 108.213 722.039 107.215 724.923 107.031C725.443 107.766 725.754 108.928 725.855 110.517C726.07 113.872 725.811 116.282 725.077 117.747L724.769 118.476L723.61 118.373C719.373 118.644 716.159 120.593 713.968 124.22C713.117 125.693 712.714 126.783 712.759 127.489L713.256 135.258C713.709 142.32 713.852 145.946 713.687 146.134C712.141 147.828 708.955 148.83 704.128 149.139C703.658 149.169 703.417 149.096 703.405 148.919C703.67 146.598 703.579 141.935 703.13 134.931ZM751.108 115.637C750.998 113.93 750.031 113.135 748.207 113.252C745.794 113.406 743.754 114.778 742.088 117.367C740.422 119.956 739.7 122.986 739.922 126.459C739.975 127.283 740.119 127.687 740.355 127.672C742.47 127.477 744.835 126.115 747.45 123.583C750.062 120.993 751.281 118.344 751.108 115.637ZM760.586 143.219C758.672 144.701 754.801 145.628 748.974 146.001C743.148 146.375 738.564 144.925 735.222 141.652C731.88 138.379 730.025 133.859 729.655 128.091C729.282 122.265 730.814 117.114 734.25 112.639C737.742 108.101 742.872 105.616 749.64 105.182C752.407 105.005 754.984 105.579 757.374 106.903C759.823 108.224 761.165 110.738 761.403 114.446C761.637 118.095 760.25 121.818 757.243 125.615C754.294 129.409 750.114 132.425 744.703 134.662C744.748 135.369 745.492 135.912 746.934 136.292C748.432 136.61 749.887 136.724 751.3 136.633C755.773 136.347 759.253 135.326 761.741 133.571C761.796 133.509 761.883 133.474 762 133.466C762.118 133.459 762.213 134.014 762.284 135.132C762.503 138.546 761.937 141.241 760.586 143.219Z" fill="white"/>
<path d="M1073.89 102.936C1073.06 102.93 1070.53 103.063 1066.29 103.334C1062.05 103.606 1059.59 103.882 1058.9 104.162C1056.44 114.603 1055.14 122.102 1055.02 126.66C1055.02 126.719 1054.29 126.796 1052.82 126.89C1051.41 126.98 1049.93 126.986 1048.39 126.908C1045.12 126.644 1043.48 126.336 1043.45 125.983C1043.3 123.629 1044.95 116.638 1048.4 105.012C1047.6 104.413 1046.63 103.145 1045.5 101.208C1044.37 99.2125 1043.76 97.5378 1043.67 96.1841C1043.67 96.1252 1046.1 95.8511 1050.98 95.3617C1054.91 81.0451 1057.17 73.4835 1057.77 72.677C1057.99 72.4853 1059.04 72.1526 1060.9 71.6789C1062.75 71.1463 1063.95 70.8631 1064.48 70.8291L1064.23 69.6928C1064.06 68.8763 1063.85 68.0029 1063.62 67.0725C1063.43 66.0795 1063.33 65.4359 1063.31 65.1416C1063.3 64.9651 1063.78 64.5799 1064.75 63.9861C1067.54 62.3889 1070.47 61.4923 1073.53 61.2964C1074.34 64.7311 1075.39 69.1257 1076.68 74.4801C1078.02 79.7719 1080.46 87.8597 1083.99 98.7436C1087.53 109.627 1090.73 117.164 1093.6 121.354L1094.28 122.373C1094.3 122.668 1093.77 123.204 1092.7 123.982C1091.63 124.76 1090.2 125.531 1088.42 126.295C1086.63 127.059 1084.98 127.49 1083.45 127.588C1082.92 127.622 1081.41 124.38 1078.92 117.861C1076.49 111.28 1074.81 106.305 1073.89 102.936ZM1071.19 93.9789C1068.64 85.6318 1067.25 80.9637 1067.01 79.9745C1066.77 78.9852 1066.59 78.4944 1066.47 78.5019C1066.36 78.5095 1066.22 78.6366 1066.06 78.8833C1065.59 79.9178 1064.74 82.3949 1063.52 86.3147C1062.35 90.2308 1061.61 92.9377 1061.29 94.4355C1067.82 94.0171 1071.12 93.8649 1071.19 93.9789ZM1097.54 108.513L1095.28 75.9481C1094.81 68.5912 1094.71 64.7562 1094.99 64.443C1095.65 63.6915 1096.75 62.9412 1098.3 62.192C1099.91 61.4391 1101.45 61.0155 1102.92 60.9213C1104.39 60.8271 1105.13 60.8977 1105.15 61.1331C1105.07 61.7292 1105.11 65.0953 1105.26 71.2313C1105.47 77.3047 1105.66 81.0752 1105.81 82.5428L1107.22 82.4524C1113.76 82.034 1119.18 83.1937 1123.49 85.9315C1125.22 87.062 1126.78 88.8236 1128.17 91.2164C1129.56 93.5503 1130.36 96.3358 1130.57 99.5728C1130.93 105.164 1128.96 109.988 1124.67 114.045C1120.38 118.043 1114.97 120.783 1108.44 122.264C1108.53 123.618 1108.55 124.356 1108.5 124.477C1107.78 125.291 1106.46 125.967 1104.55 126.503C1102.69 127.035 1101.14 127.341 1099.91 127.421C1098.73 127.496 1098.14 127.445 1098.13 127.269C1098.43 125.594 1098.24 119.343 1097.54 108.513ZM1108 112.542C1109.53 112.444 1111.1 112.107 1112.72 111.531C1114.33 110.895 1115.62 110.163 1116.57 109.334C1117.58 108.501 1118.44 107.234 1119.16 105.533C1119.94 103.829 1120.24 101.652 1120.07 99.0039C1119.9 96.3554 1118.83 94.3852 1116.86 93.0933C1114.94 91.7976 1112.78 91.227 1110.36 91.3816L1106.32 91.9065L1106.73 98.2628C1107.24 106.208 1107.66 110.968 1108 112.542ZM1173.36 97.9853C1173.71 103.577 1172.32 108.541 1169.17 112.88C1166.07 117.156 1161.61 119.48 1155.79 119.853C1150.02 120.223 1145.37 118.718 1141.84 115.339C1138.32 111.96 1136.37 107.416 1136.01 101.707C1135.64 95.9387 1137.34 90.7177 1141.12 86.0435C1144.95 81.3067 1150.34 78.7159 1157.29 78.2712C1160.12 78.208 1161.66 78.2866 1161.91 78.5069C1162.16 78.7273 1162.32 79.2789 1162.37 80.1617C1162.43 81.0445 1162.4 82.0213 1162.3 83.092C1163.18 83.0355 1164.33 83.4936 1165.75 84.4663C1167.23 85.3764 1168.44 86.3328 1169.39 87.3357C1170.34 88.3386 1171.21 89.7904 1171.98 91.6911C1172.74 93.5331 1173.2 95.6311 1173.36 97.9853ZM1160.07 92.6309C1158.66 91.8348 1157.31 91.4781 1156.01 91.5611L1155.31 91.6063C1155.17 91.3784 1155.08 90.8819 1155.03 90.1168C1154.98 89.3517 1155.03 88.6103 1155.16 87.8927C1152.74 88.0473 1150.55 89.2812 1148.57 91.5945C1146.65 93.9041 1145.81 97.0011 1146.06 100.886C1146.35 105.476 1148.03 108.56 1151.09 110.137C1152.25 110.772 1153.8 111.027 1155.74 110.903C1157.75 110.775 1159.54 109.744 1161.13 107.81C1162.78 105.872 1163.49 103.108 1163.26 99.5183C1163.03 95.9281 1161.97 93.6323 1160.07 92.6309ZM1203.13 111.148L1202.92 109.3L1202.82 109.129C1201.55 111.397 1199.87 113.248 1197.77 114.683C1195.74 116.113 1193.69 116.894 1191.63 117.026C1185.45 117.422 1181.61 112.851 1180.11 103.315C1179.9 101.792 1179.58 97.8523 1179.18 91.496C1178.77 85.1396 1178.79 81.3559 1179.25 80.1449C1180.7 78.8109 1183.13 78.0346 1186.55 77.8161C1187.9 77.7294 1188.73 77.8237 1189.05 78.0992C1189.05 78.158 1189.07 78.9545 1189.11 80.4885C1189.1 84.9803 1189.18 88.4328 1189.33 90.8458C1189.48 93.2589 1189.63 95.0521 1189.76 96.2254C1189.89 97.3399 1189.97 98.0737 1189.99 98.4269C1190.07 98.7174 1190.19 99.2708 1190.37 100.087C1190.59 100.9 1190.88 101.591 1191.21 102.161C1192.2 103.811 1193.61 104.578 1195.43 104.461C1197.32 104.34 1198.91 103.323 1200.2 101.408C1201.55 99.4301 1202.17 98.0606 1202.07 97.2992L1201.87 94.2976C1201.18 83.5271 1200.99 77.7186 1201.29 76.872C1201.55 76.3234 1202.43 75.7059 1203.92 75.0193C1205.47 74.329 1207.01 73.9349 1208.54 73.8369C1210.07 73.7389 1210.96 73.8001 1211.21 74.0204L1211.3 78.181C1211.49 86.6199 1211.73 93.1348 1212.02 97.7255C1212.31 102.316 1212.62 105.222 1212.93 106.443C1213.53 109.359 1214.48 111.663 1215.77 113.353C1215.81 113.941 1214.66 114.96 1212.33 116.41C1210 117.859 1207.98 118.638 1206.28 118.748C1205.8 118.778 1205.22 117.929 1204.52 116.201C1203.82 114.473 1203.35 112.789 1203.13 111.148ZM1229.48 54.7668C1229.45 56.128 1229.54 59.8453 1229.75 65.9187C1234.17 65.6361 1236.38 65.583 1236.39 65.7596C1236.52 67.7607 1236.34 69.5746 1235.85 71.2014C1235.36 72.7693 1234.85 73.5702 1234.32 73.6041L1230.18 73.8698C1230.62 82.588 1231.01 89.6838 1231.36 95.1573C1231.71 100.572 1232.03 104.186 1232.32 105.999C1232.87 109.037 1234.24 111.461 1236.42 113.271C1236.46 113.919 1235.38 114.934 1233.16 116.317C1231 117.696 1228.92 118.45 1226.92 118.578C1226.74 118.589 1226.37 118.318 1225.81 117.763C1225.3 117.205 1224.71 116.267 1224.03 114.951C1223.41 113.632 1222.98 112.33 1222.72 111.046C1222.52 109.759 1222.16 105.143 1221.65 97.1974C1221.14 89.2519 1220.75 81.7422 1220.48 74.6683L1215.54 75.0731C1215.22 74.7977 1215 73.5417 1214.85 71.3052C1214.71 69.0099 1214.88 67.6098 1215.38 67.1051C1216.67 66.9633 1218.23 66.8046 1220.05 66.6289C1219.83 63.2153 1219.6 61.0138 1219.36 60.0246C1219.12 59.0354 1218.99 58.4525 1218.98 58.2759C1218.94 57.6874 1219.9 56.9465 1221.85 56.0532C1223.86 55.1562 1225.64 54.6587 1227.17 54.5607C1228.7 54.4627 1229.47 54.5314 1229.48 54.7668Z" fill="white"/>
<path d="M83.9116 158.002L93.5344 157.385C97.8897 157.106 101.167 155.685 103.367 153.121C105.567 150.557 106.551 147.48 106.322 143.89C105.768 135.239 100.606 131.225 90.8356 131.851L82.2721 132.399L83.9116 158.002ZM117.906 184.989L111.374 185.407L94.9047 162.173L93.2274 162.28L84.2225 162.857L85.7715 187.047L80.2979 187.397L76.4877 127.894L89.9067 127.035C96.8516 126.59 102.133 127.848 105.75 130.807C109.422 133.704 111.443 138.037 111.812 143.805C111.951 147.814 111.053 151.329 109.119 154.349C107.185 157.368 104.309 159.532 100.493 160.84L117.906 184.989ZM151.876 137.871L157.262 137.526L160.128 182.285L154.743 182.63L154.228 174.596C152.243 180.515 147.69 183.702 140.569 184.158C136.213 184.437 132.658 183.365 129.902 180.941C127.202 178.454 125.714 175.063 125.439 170.766L123.449 139.691L128.834 139.346L130.728 168.921C130.947 172.334 131.997 174.897 133.88 176.608C135.821 178.316 138.263 179.076 141.206 178.887C145.149 178.635 148.237 177.019 150.469 174.039C152.76 171.056 153.761 167.298 153.471 162.766L151.876 137.871ZM179.299 140.724L181.08 168.533C181.408 173.654 183.956 176.061 188.723 175.756C191.077 175.605 193.035 174.8 194.596 173.341L194.947 178.814C193.311 180.042 191.376 180.727 189.139 180.871C180.664 181.413 176.147 177.329 175.59 168.619L173.826 141.075L166.498 141.544L166.204 136.953L173.532 136.484L172.814 125.272L178.287 124.921L179.005 136.133L191.806 135.314L192.1 139.904L179.299 140.724ZM223.615 179.018C217.317 179.421 212.175 177.564 208.188 173.446C204.202 169.328 201.997 163.973 201.575 157.381C201.157 150.848 202.717 145.223 206.256 140.505C209.795 135.787 214.596 133.234 220.658 132.846C227.309 132.42 232.6 134.297 236.532 138.477C240.518 142.595 242.727 148.009 243.156 154.719C243.582 161.369 242.051 166.993 238.563 171.589C235.131 176.123 230.148 178.599 223.615 179.018ZM220.986 137.966C216.336 138.264 212.8 140.263 210.378 143.964C207.956 147.665 206.905 152.017 207.225 157.019C207.538 161.904 209.161 166.026 212.095 169.384C215.083 172.679 218.814 174.184 223.287 173.897C228.172 173.584 231.829 171.636 234.259 168.053C236.744 164.407 237.827 160.083 237.506 155.08C237.174 149.901 235.634 145.686 232.885 142.434C230.131 139.124 226.165 137.634 220.986 137.966ZM255.571 176.173L251.574 113.757L256.959 113.413L260.956 175.829L255.571 176.173ZM302.417 148.176L302.287 146.145C302.027 142.084 300.672 138.921 298.223 136.655C295.832 134.385 292.723 133.372 288.898 133.617C285.131 133.858 282.067 135.384 279.706 138.195C277.345 141.005 276.116 144.896 276.021 149.866L302.417 148.176ZM306.257 165.216L306.607 170.689C303.189 172.681 299.126 173.828 294.417 174.129C287.766 174.555 282.22 172.842 277.777 168.989C273.39 165.075 270.979 159.733 270.546 152.965C270.086 145.784 271.549 140.017 274.934 135.664C278.319 131.31 282.925 128.947 288.752 128.574C294.226 128.223 298.696 129.739 302.163 133.122C305.63 136.505 307.572 141.463 307.991 147.996C308.119 149.997 308.103 151.594 307.943 152.786L276.337 154.81C277.066 159.727 279.016 163.414 282.187 165.87C285.355 168.268 289.41 169.308 294.354 168.992C299.416 168.668 303.383 167.409 306.257 165.216Z" fill="white"/>
<path d="M1424 84.9089C1425.24 104.195 1410.47 120.864 1390.99 122.111C1371.51 123.359 1354.74 108.709 1353.51 89.4231C1352.27 70.1375 1367.04 53.4682 1386.52 52.2207C1406 50.9732 1422.77 65.6233 1424 84.9089Z" stroke="white" stroke-width="3.68599"/>
<path d="M1390.29 111.076C1411.77 109.7 1428.11 91.305 1426.74 69.9595C1425.37 48.614 1406.82 32.4526 1385.34 33.8284C1363.86 35.2041 1347.52 53.5993 1348.89 74.9448C1350.25 96.2903 1368.8 112.452 1390.29 111.076Z" fill="#C218C6" stroke="white" stroke-width="3.68599"/>
<rect x="835.761" y="87.0862" width="59.4908" height="66.3478" rx="12.901" transform="rotate(-3.66396 835.761 87.0862)" fill="#110F0F" stroke="white" stroke-width="3.68599"/>
<rect x="820.014" y="73.321" width="66.8628" height="73.7198" rx="16.587" transform="rotate(-3.66396 820.014 73.321)" fill="#110F0F" stroke="white" stroke-width="3.68599"/>
<ellipse cx="464.826" cy="130.698" rx="37.1628" ry="36.8599" transform="rotate(-3.66396 464.826 130.698)" fill="white"/>
</g>
<defs>
<clipPath id="clip0_11_533">
<rect width="1544.47" height="240.03" fill="white" transform="translate(0.415771)"/>
</clipPath>
</defs>
</svg>
