<svg width="1567" height="347" viewBox="0 0 1567 347" fill="none" xmlns="http://www.w3.org/2000/svg">
<g clip-path="url(#clip0_68_1440)">
<rect x="0.169434" y="100.965" width="1569" height="132.54" transform="rotate(-3.66396 0.169434 100.965)" fill="#110F0F"/>
<path d="M637.758 89.7283C638.131 95.555 637.523 103.602 635.935 113.868C634.343 124.075 632.609 132.992 630.734 140.617C628.858 148.242 627.588 152.401 626.923 153.094C626.262 153.846 624.654 154.569 622.098 155.265C619.601 155.956 617.676 156.346 616.322 156.432C614.969 156.519 614.286 156.474 614.275 156.297C614.127 155.834 613.376 152.868 612.021 147.4C608.087 132.11 605.884 124.007 605.411 123.091C604.935 122.117 604.639 121.634 604.521 121.641L604.113 122.199C602.876 125.943 601.564 131.759 600.178 139.648C598.847 147.475 598.218 151.948 598.289 153.066C598.304 153.302 597.766 153.661 596.674 154.145C593.685 155.459 590.719 156.21 587.776 156.399C587.129 156.44 586.711 156.378 586.524 156.213C584.833 154.726 581.836 146.23 577.534 130.727C573.287 115.161 570.958 104.171 570.547 97.7553C570.54 97.6376 570.819 97.3833 571.385 96.9925C573.322 95.8638 575.469 95.2535 577.827 95.1616C580.24 95.0071 581.451 94.9887 581.458 95.1064C582.36 102.731 583.73 110.74 585.567 119.132C587.46 127.462 589.124 133.147 590.56 136.187C590.704 136.591 590.835 136.79 590.953 136.782C591.129 136.771 591.293 136.553 591.443 136.13C595.074 117.164 597.384 107.088 598.371 105.902C600.438 104.942 603.383 104.34 607.209 104.095C609.335 104.077 610.492 104.151 610.68 104.316C610.868 104.481 611.615 106.915 612.921 111.618C614.223 116.263 615.647 121.431 617.194 127.124C618.736 132.757 619.663 136.155 619.974 137.317C620.34 138.417 620.718 138.333 621.11 137.067C621.934 134.237 622.877 129.124 623.94 121.728C625.002 114.332 625.327 107.396 624.912 100.922C624.871 100.275 624.272 99.6928 623.116 99.1758C622.015 98.5963 620.902 98.2834 619.776 98.2373C619.706 98.0645 619.654 97.7133 619.62 97.1836C619.582 96.595 619.647 95.7635 619.815 94.6891C620.037 93.552 620.231 92.8895 620.397 92.7016C625.662 90.9461 630.973 89.8969 636.328 89.5539C637.278 89.6113 637.754 89.6695 637.758 89.7283ZM665.544 120.57C665.435 118.864 664.468 118.069 662.644 118.185C660.231 118.34 658.191 119.712 656.525 122.3C654.859 124.889 654.137 127.92 654.359 131.392C654.412 132.216 654.556 132.621 654.791 132.605C656.906 132.411 659.272 131.048 661.887 128.517C664.499 125.926 665.718 123.278 665.544 120.57ZM675.023 148.152C673.108 149.634 669.238 150.562 663.411 150.935C657.585 151.308 653 149.858 649.659 146.585C646.317 143.313 644.461 138.792 644.092 133.025C643.719 127.198 645.251 122.047 648.687 117.572C652.179 113.034 657.309 110.549 664.077 110.116C666.843 109.938 669.421 110.512 671.811 111.836C674.259 113.157 675.602 115.671 675.84 119.379C676.073 123.028 674.687 126.751 671.679 130.549C668.731 134.343 664.551 137.358 659.139 139.596C659.185 140.302 659.929 140.846 661.371 141.226C662.869 141.544 664.324 141.657 665.737 141.567C670.21 141.28 673.69 140.26 676.178 138.505C676.233 138.442 676.319 138.407 676.437 138.4C676.555 138.392 676.65 138.947 676.721 140.066C676.94 143.479 676.374 146.175 675.023 148.152ZM698.462 86.6389C700.051 86.5372 701.299 87.1073 702.206 88.3494C703.172 89.5877 703.722 91.2662 703.858 93.385C703.994 95.5038 703.655 97.5939 702.841 99.6552C702.028 101.717 701.178 103.219 700.293 104.162C699.408 105.105 698.612 105.599 697.906 105.645C697.259 105.686 696.569 105.523 695.836 105.157C695.162 104.786 694.693 104.373 694.427 103.917C696.955 101.864 698.289 99.6217 698.428 97.1898C695.191 97.3971 693.458 95.7057 693.228 92.1155C693.248 90.5777 693.728 89.3059 694.668 88.3002C695.608 87.2944 696.873 86.7407 698.462 86.6389ZM713.695 133.709L712.235 113.68C712.013 110.208 712.012 108.346 712.232 108.096C712.838 107.407 713.921 106.776 715.48 106.203C717.035 105.572 718.489 105.213 719.843 105.126C721.255 105.036 721.971 105.138 721.99 105.432C721.915 107.032 721.944 108.863 722.076 110.922C722.204 112.924 722.327 113.92 722.444 113.913C722.562 113.905 722.676 113.839 722.786 113.714C722.893 113.53 723.054 113.283 723.271 112.973C723.542 112.601 724.064 111.977 724.835 111.1C725.665 110.22 726.562 109.453 727.524 108.801C729.95 106.991 732.604 105.993 735.488 105.809C736.008 106.544 736.319 107.706 736.421 109.295C736.635 112.649 736.376 115.06 735.643 116.525L735.335 117.254L734.176 117.151C729.938 117.422 726.724 119.371 724.533 122.998C723.682 124.471 723.279 125.56 723.324 126.267L723.822 134.036C724.274 141.098 724.417 144.724 724.252 144.911C722.706 146.606 719.52 147.608 714.694 147.917C714.223 147.947 713.982 147.874 713.97 147.697C714.235 145.376 714.144 140.713 713.695 133.709ZM761.673 114.415C761.564 112.708 760.597 111.913 758.772 112.03C756.359 112.184 754.319 113.556 752.653 116.145C750.987 118.733 750.265 121.764 750.487 125.237C750.54 126.06 750.684 126.465 750.92 126.45C753.035 126.255 755.4 124.892 758.015 122.361C760.627 119.771 761.846 117.122 761.673 114.415ZM771.151 141.997C769.237 143.479 765.366 144.406 759.54 144.779C753.713 145.152 749.129 143.703 745.787 140.43C742.445 137.157 740.59 132.637 740.221 126.869C739.847 121.042 741.379 115.892 744.816 111.417C748.307 106.879 753.437 104.393 760.206 103.96C762.972 103.783 765.55 104.356 767.939 105.681C770.388 107.001 771.731 109.516 771.968 113.224C772.202 116.873 770.815 120.596 767.808 124.393C764.86 128.187 760.68 131.203 755.268 133.44C755.313 134.147 756.057 134.69 757.5 135.07C758.997 135.388 760.452 135.502 761.865 135.411C766.338 135.125 769.818 134.104 772.306 132.349C772.361 132.287 772.448 132.252 772.566 132.244C772.683 132.236 772.778 132.792 772.849 133.91C773.068 137.324 772.502 140.019 771.151 141.997Z" fill="white"/>
<path d="M1093.93 101.118C1093.1 101.112 1090.57 101.245 1086.33 101.516C1082.09 101.787 1079.63 102.063 1078.94 102.344C1076.47 112.784 1075.18 120.284 1075.06 124.842C1075.06 124.901 1074.33 124.977 1072.86 125.072C1071.44 125.162 1069.97 125.168 1068.43 125.09C1065.16 124.826 1063.51 124.518 1063.49 124.164C1063.34 121.81 1064.99 114.82 1068.44 103.193C1067.64 102.595 1066.67 101.327 1065.54 99.39C1064.41 97.3942 1063.8 95.7194 1063.71 94.3657C1063.71 94.3069 1066.14 94.0328 1071.02 93.5434C1074.94 79.2268 1077.21 71.6652 1077.81 70.8586C1078.03 70.667 1079.07 70.3343 1080.93 69.8605C1082.79 69.328 1083.98 69.0447 1084.51 69.0108L1084.26 67.8744C1084.09 67.058 1083.89 66.1846 1083.65 65.2542C1083.47 64.2612 1083.37 63.6175 1083.35 63.3233C1083.34 63.1467 1083.82 62.7615 1084.78 62.1678C1087.58 60.5706 1090.51 59.674 1093.57 59.478C1094.38 62.9128 1095.43 67.3074 1096.71 72.6617C1098.06 77.9535 1100.5 86.0413 1104.03 96.9252C1107.56 107.809 1110.76 115.346 1113.63 119.535L1114.32 120.555C1114.34 120.849 1113.81 121.385 1112.74 122.163C1111.66 122.941 1110.24 123.712 1108.45 124.476C1106.67 125.241 1105.01 125.672 1103.48 125.77C1102.95 125.804 1101.45 122.561 1098.96 116.043C1096.53 109.461 1094.85 104.486 1093.93 101.118ZM1091.23 92.1605C1088.68 83.8135 1087.29 79.1454 1087.05 78.1561C1086.81 77.1669 1086.63 76.676 1086.51 76.6836C1086.39 76.6911 1086.25 76.8182 1086.09 77.065C1085.63 78.0994 1084.78 80.5766 1083.56 84.4964C1082.39 88.4124 1081.65 91.1193 1081.33 92.6171C1087.86 92.1988 1091.16 92.0466 1091.23 92.1605ZM1117.58 106.695L1115.32 74.1297C1114.85 66.7728 1114.75 62.9378 1115.03 62.6247C1115.69 61.8732 1116.79 61.1229 1118.34 60.3737C1119.95 59.6208 1121.48 59.1972 1122.96 59.103C1124.43 59.0087 1125.17 59.0793 1125.19 59.3148C1125.11 59.9108 1125.14 63.2769 1125.3 69.4129C1125.51 75.4863 1125.69 79.2568 1125.85 80.7244L1127.26 80.634C1133.79 80.2157 1139.22 81.3754 1143.53 84.1132C1145.25 85.2436 1146.82 87.0052 1148.21 89.398C1149.6 91.7319 1150.4 94.5174 1150.61 97.7544C1150.96 103.346 1149 108.17 1144.71 112.227C1140.41 116.225 1135 118.965 1128.48 120.446C1128.57 121.8 1128.58 122.537 1128.53 122.659C1127.82 123.473 1126.5 124.148 1124.58 124.685C1122.73 125.217 1121.18 125.523 1119.95 125.602C1118.77 125.678 1118.17 125.627 1118.16 125.45C1118.47 123.776 1118.28 117.524 1117.58 106.695ZM1128.03 110.724C1129.56 110.626 1131.14 110.289 1132.76 109.712C1134.37 109.077 1135.65 108.345 1136.6 107.516C1137.62 106.683 1138.48 105.416 1139.2 103.715C1139.98 102.011 1140.28 99.8341 1140.11 97.1856C1139.94 94.5371 1138.87 92.5669 1136.89 91.275C1134.98 89.9793 1132.82 89.4087 1130.4 89.5632L1126.36 90.0881L1126.77 96.4445C1127.27 104.39 1127.7 109.15 1128.03 110.724ZM1193.39 96.167C1193.75 101.758 1192.35 106.723 1189.2 111.062C1186.11 115.337 1181.65 117.662 1175.82 118.035C1170.06 118.404 1165.41 116.899 1161.88 113.52C1158.36 110.141 1156.41 105.597 1156.05 99.8882C1155.68 94.1204 1157.38 88.8994 1161.16 84.2252C1164.99 79.4884 1170.38 76.8976 1177.33 76.4529C1180.16 76.3897 1181.7 76.4682 1181.95 76.6886C1182.2 76.9089 1182.36 77.4605 1182.41 78.3434C1182.47 79.2262 1182.44 80.2029 1182.33 81.2736C1183.22 81.2171 1184.37 81.6752 1185.79 82.6479C1187.27 83.558 1188.48 84.5145 1189.43 85.5173C1190.38 86.5202 1191.24 87.972 1192.01 89.8728C1192.78 91.7147 1193.24 93.8128 1193.39 96.167ZM1180.11 90.8125C1178.7 90.0164 1177.34 89.6598 1176.05 89.7427L1175.34 89.7879C1175.21 89.56 1175.12 89.0635 1175.07 88.2984C1175.02 87.5333 1175.06 86.792 1175.19 86.0744C1172.78 86.2289 1170.59 87.4628 1168.61 89.7762C1166.69 92.0857 1165.85 95.1827 1166.1 99.0672C1166.39 103.658 1168.07 106.742 1171.12 108.319C1172.29 108.954 1173.84 109.209 1175.78 109.084C1177.78 108.956 1179.58 107.925 1181.17 105.992C1182.82 104.054 1183.53 101.29 1183.3 97.6999C1183.07 94.1098 1182 91.814 1180.11 90.8125ZM1223.17 109.33L1222.96 107.482L1222.86 107.311C1221.59 109.579 1219.9 111.43 1217.81 112.864C1215.77 114.295 1213.72 115.076 1211.66 115.208C1205.49 115.604 1201.65 111.033 1200.15 101.496C1199.93 99.9735 1199.62 96.034 1199.22 89.6776C1198.81 83.3212 1198.83 79.5375 1199.29 78.3265C1200.74 76.9926 1203.17 76.2163 1206.58 75.9977C1207.94 75.911 1208.77 76.0054 1209.08 76.2808C1209.09 76.3397 1209.11 77.1361 1209.15 78.6701C1209.14 83.162 1209.21 86.6144 1209.37 89.0275C1209.52 91.4405 1209.67 93.2338 1209.8 94.4071C1209.93 95.5216 1210.01 96.2554 1210.03 96.6085C1210.11 96.899 1210.23 97.4525 1210.4 98.2689C1210.63 99.0816 1210.91 99.7728 1211.24 100.342C1212.24 101.993 1213.65 102.759 1215.47 102.643C1217.35 102.522 1218.94 101.504 1220.24 99.5893C1221.59 97.6117 1222.21 96.2422 1222.1 95.4809L1221.91 92.4793C1221.22 81.7087 1221.03 75.9002 1221.33 75.0536C1221.59 74.5051 1222.46 73.8875 1223.96 73.201C1225.51 72.5107 1227.05 72.1165 1228.58 72.0185C1230.11 71.9205 1231 71.9817 1231.25 72.2021L1231.34 76.3627C1231.52 84.8016 1231.76 91.3164 1232.06 95.9071C1232.35 100.498 1232.66 103.404 1232.97 104.625C1233.57 107.541 1234.52 109.844 1235.81 111.535C1235.84 112.123 1234.7 113.142 1232.37 114.591C1230.04 116.041 1228.02 116.82 1226.31 116.929C1225.84 116.959 1225.26 116.111 1224.55 114.383C1223.85 112.655 1223.39 110.97 1223.17 109.33ZM1249.52 52.9485C1249.49 54.3097 1249.58 58.027 1249.79 64.1004C1254.21 63.8177 1256.42 63.7647 1256.43 63.9412C1256.56 65.9423 1256.38 67.7562 1255.89 69.383C1255.4 70.9509 1254.89 71.7519 1254.36 71.7858L1250.21 72.0515C1250.65 80.7696 1251.05 87.8654 1251.4 93.339C1251.75 98.7537 1252.07 102.368 1252.36 104.181C1252.91 107.219 1254.27 109.643 1256.46 111.453C1256.5 112.1 1255.41 113.116 1253.2 114.499C1251.04 115.878 1248.96 116.631 1246.96 116.76C1246.78 116.771 1246.41 116.499 1245.84 115.945C1245.33 115.386 1244.74 114.449 1244.07 113.133C1243.45 111.813 1243.01 110.512 1242.75 109.228C1242.55 107.941 1242.2 103.324 1241.69 95.379C1241.18 87.4336 1240.79 79.9239 1240.51 72.8499L1235.57 73.2548C1235.26 72.9793 1235.03 71.7234 1234.89 69.4869C1234.74 67.1915 1234.92 65.7915 1235.42 65.2867C1236.71 65.1449 1238.27 64.9862 1240.09 64.8105C1239.87 61.3969 1239.64 59.1955 1239.4 58.2062C1239.16 57.217 1239.03 56.6341 1239.02 56.4576C1238.98 55.869 1239.94 55.1281 1241.89 54.2348C1243.9 53.3378 1245.67 52.8403 1247.2 52.7423C1248.73 52.6443 1249.51 52.713 1249.52 52.9485Z" fill="white"/>
<path d="M84.8184 157.917L94.4413 157.301C98.7966 157.022 102.074 155.6 104.274 153.037C106.473 150.473 107.458 147.396 107.228 143.806C106.674 135.154 101.512 131.141 91.7424 131.766L83.179 132.315L84.8184 157.917ZM118.813 184.904L112.28 185.322L95.8116 162.088L94.1342 162.196L85.1294 162.772L86.6783 186.962L81.2048 187.312L77.3945 127.81L90.8135 126.95C97.7584 126.506 103.039 127.763 106.657 130.723C110.329 133.62 112.35 137.952 112.719 143.72C112.857 147.73 111.96 151.244 110.026 154.264C108.091 157.283 105.216 159.447 101.4 160.755L118.813 184.904ZM152.783 137.786L158.168 137.441L161.035 182.2L155.649 182.545L155.135 174.512C153.15 180.43 148.597 183.617 141.475 184.073C137.12 184.352 133.565 183.28 130.809 180.856C128.109 178.37 126.621 174.978 126.346 170.682L124.356 139.606L129.741 139.261L131.635 168.836C131.854 172.25 132.904 174.812 134.787 176.524C136.728 178.231 139.17 178.991 142.113 178.803C146.056 178.55 149.144 176.934 151.376 173.954C153.667 170.971 154.668 167.213 154.377 162.682L152.783 137.786ZM180.206 140.639L181.987 168.448C182.315 173.569 184.862 175.976 189.63 175.671C191.984 175.52 193.942 174.715 195.503 173.256L195.853 178.73C194.218 179.957 192.282 180.643 190.046 180.786C181.571 181.329 177.054 177.245 176.496 168.534L174.733 140.99L167.405 141.459L167.111 136.868L174.439 136.399L173.721 125.187L179.194 124.837L179.912 136.049L192.713 135.229L193.007 139.82L180.206 140.639ZM224.522 178.933C218.224 179.336 213.082 177.479 209.095 173.361C205.108 169.243 202.904 163.888 202.482 157.296C202.064 150.764 203.624 145.138 207.163 140.42C210.702 135.702 215.503 133.149 221.565 132.761C228.216 132.335 233.507 134.212 237.438 138.393C241.425 142.511 243.633 147.924 244.063 154.634C244.489 161.284 242.958 166.908 239.47 171.505C236.037 176.038 231.055 178.514 224.522 178.933ZM221.893 137.881C217.243 138.179 213.707 140.178 211.285 143.879C208.863 147.58 207.812 151.932 208.132 156.935C208.445 161.82 210.068 165.941 213.001 169.299C215.99 172.594 219.721 174.099 224.194 173.812C229.079 173.5 232.736 171.552 235.166 167.968C237.651 164.323 238.733 159.998 238.413 154.996C238.081 149.816 236.541 145.601 233.791 142.349C231.038 139.039 227.072 137.55 221.893 137.881ZM256.477 176.089L252.481 113.673L257.866 113.328L261.863 175.744L256.477 176.089ZM303.324 148.091L303.194 146.06C302.934 141.999 301.579 138.836 299.129 136.57C296.738 134.3 293.63 133.288 289.805 133.533C286.038 133.774 282.974 135.3 280.613 138.11C278.251 140.921 277.023 144.811 276.928 149.781L303.324 148.091ZM307.164 165.131L307.514 170.604C304.096 172.596 300.032 173.743 295.324 174.044C288.673 174.47 283.127 172.757 278.684 168.905C274.297 164.99 271.886 159.648 271.453 152.88C270.993 145.7 272.456 139.933 275.841 135.579C279.226 131.226 283.832 128.862 289.659 128.489C295.132 128.139 299.603 129.655 303.07 133.038C306.537 136.421 308.479 141.378 308.897 147.911C309.026 149.912 309.01 151.509 308.85 152.701L277.244 154.725C277.973 159.643 279.923 163.329 283.094 165.786C286.261 168.183 290.317 169.224 295.261 168.907C300.323 168.583 304.29 167.324 307.164 165.131Z" fill="white"/>
<path d="M1451.57 80.9269C1452.76 99.5581 1437.73 115.861 1417.76 117.14C1397.79 118.419 1380.8 104.166 1379.61 85.5351C1378.41 66.9039 1393.44 50.6007 1413.42 49.3219C1433.39 48.043 1450.38 62.2957 1451.57 80.9269Z" stroke="white" stroke-width="3.68599"/>
<path d="M1417.08 106.519C1438.88 105.123 1455.67 87.2474 1454.33 66.392C1453 45.5367 1434.07 29.9478 1412.26 31.3441C1390.46 32.7404 1373.68 50.616 1375.01 71.4714C1376.35 92.3267 1395.27 107.916 1417.08 106.519Z" fill="#C218C6" stroke="white" stroke-width="3.68599"/>
<rect x="851.72" y="84.8992" width="60.7415" height="64.375" rx="12.901" transform="rotate(-3.66396 851.72 84.8992)" fill="#110F0F" stroke="white" stroke-width="3.68599"/>
<rect x="835.773" y="71.4592" width="68.1135" height="71.747" rx="16.587" transform="rotate(-3.66396 835.773 71.4592)" fill="#110F0F" stroke="white" stroke-width="3.68599"/>
<ellipse cx="473.414" cy="128.372" rx="37.8986" ry="35.8216" transform="rotate(-3.66396 473.414 128.372)" fill="white"/>
<rect x="18" y="0.319824" width="1569" height="138" transform="rotate(7.6024 18 0.319824)" fill="#110F0F"/>
<path d="M224.543 87.5374L236.546 89.0478C240.995 89.6414 243.211 89.9984 243.195 90.1186C244.246 82.2443 245.132 76.5199 245.854 72.9454C246.576 69.3709 246.944 67.5236 246.961 67.4034C246.977 67.2831 247.437 67.0388 248.343 66.6702C249.309 66.3097 250.601 66.0233 252.22 65.8112C253.847 65.5389 255.202 65.4749 256.284 65.6193C257.426 65.7718 257.981 65.9682 257.949 66.2087C256.108 74.9565 254.518 84.3495 253.178 94.3878C251.847 104.366 251.156 111.83 251.107 116.779C251.059 121.728 251.92 125.361 253.691 127.677C253.675 127.797 253.334 128.058 252.669 128.458C252.064 128.867 250.635 129.258 248.383 129.63C246.191 130.01 244.163 130.076 242.3 129.827L241.242 129.503C240.252 128.208 239.753 125.756 239.746 122.145C239.806 118.482 240.573 110.906 242.045 99.4176C241.031 99.2211 237.759 98.7538 232.229 98.0157C226.759 97.2856 223.742 96.9746 223.177 97.0827C222.892 98.7578 222.365 102.481 221.594 108.251C220.832 113.961 220.435 118.772 220.402 122.683C220.314 123.345 219.28 123.757 217.3 123.921C215.313 124.145 213.477 124.145 211.794 123.921C210.171 123.704 209.204 123.391 208.891 122.982C208.631 122.642 209.214 117.122 210.642 106.422L212.063 95.7828C211.377 94.9572 210.66 93.4544 209.911 91.2742C209.162 89.0941 208.876 87.3429 209.052 86.0205C209.076 85.8401 210.561 85.9465 213.506 86.3397C214.136 82.0799 214.82 77.185 215.558 71.6549L215.811 69.7615C214.633 66.6676 214.233 63.7081 214.61 60.883C214.642 60.6426 214.692 60.4963 214.76 60.4442C215.129 60.4323 215.464 60.4463 215.764 60.4864C216.065 60.5266 216.726 60.6148 217.748 60.7512C218.83 60.8956 220.304 61.3066 222.172 61.9841C224.047 62.6014 225.524 63.2268 226.602 63.8601C227.679 64.4934 228.198 64.9603 228.158 65.2609C227.344 68.1501 226.219 74.9745 224.783 85.7341L224.543 87.5374ZM282.802 127.8L282.965 125.895L282.899 125.702C281.159 127.734 279.089 129.262 276.689 130.288C274.348 131.321 272.126 131.698 270.022 131.417C263.711 130.575 260.758 125.194 261.164 115.276C261.252 113.697 261.73 109.662 262.596 103.17C263.463 96.6782 264.247 92.8673 264.948 91.7373C266.679 90.6836 269.288 90.3894 272.775 90.8547C274.157 91.0393 274.979 91.3019 275.239 91.6425C275.231 91.7026 275.093 92.5101 274.824 94.0649C273.914 98.5931 273.294 102.089 272.965 104.554C272.636 107.018 272.422 108.856 272.321 110.066C272.229 111.216 272.159 111.971 272.111 112.332C272.131 112.641 272.144 113.224 272.152 114.081C272.22 114.947 272.365 115.7 272.585 116.342C273.254 118.205 274.52 119.261 276.383 119.51C278.307 119.767 280.114 119.06 281.806 117.389C283.565 115.666 284.467 114.41 284.511 113.62L284.92 110.555C286.389 99.5546 287.359 93.6579 287.832 92.8645C288.205 92.3636 289.213 91.9169 290.856 91.5244C292.559 91.1399 294.192 91.052 295.755 91.2606C297.318 91.4692 298.203 91.7098 298.412 91.9823L297.666 96.1959C296.158 104.743 295.091 111.361 294.465 116.05C293.839 120.739 293.562 123.73 293.634 125.024C293.654 128.086 294.145 130.599 295.106 132.562C295.026 133.164 293.665 133.961 291.024 134.954C288.383 135.948 286.191 136.328 284.448 136.095C283.967 136.031 283.546 135.057 283.186 133.174C282.826 131.29 282.698 129.499 282.802 127.8ZM302.615 122.552L305.173 101.328C305.686 97.4806 306.113 95.4268 306.454 95.1664C307.263 94.6015 308.456 94.1488 310.031 93.8084C311.614 93.4079 313.096 93.2999 314.479 93.4844C315.861 93.6689 316.537 93.8814 316.505 94.1219C315.911 96.7346 315.522 98.7322 315.338 100.115C315.153 101.497 315.121 102.197 315.241 102.213C315.361 102.229 315.558 102.132 315.83 101.924C316.111 101.656 316.588 101.291 317.261 100.83C318.002 100.317 319.279 99.6925 321.09 98.9554C322.97 98.1662 324.631 97.8678 326.074 98.0604C329.981 98.5819 332.693 100.718 334.212 104.469C338.28 100.118 342.388 98.2189 346.535 98.7725C350.262 99.2699 352.724 101.22 353.922 104.622C355.132 108.393 355.65 112.072 355.477 115.659C355.148 120.876 354.614 126.25 353.876 131.78L352.107 142.281C352.051 142.702 351.007 142.96 348.976 143.056C346.936 143.212 345.315 143.21 344.113 143.05L341.288 142.214C342.743 136.351 343.715 131.586 344.205 127.92C344.694 124.253 344.983 121.63 345.072 120.051C345.228 118.42 345.23 116.799 345.078 115.188C344.934 113.517 344.516 112.299 343.822 111.534C343.197 110.716 342.314 110.231 341.172 110.079C340.03 109.926 338.964 110.12 337.974 110.661C336.992 111.142 336.25 111.655 335.749 112.2C335.309 112.753 335.076 113.119 335.052 113.3C334.976 115.247 334.472 119.707 333.541 126.68L332.23 133.755C332.166 134.236 331.148 134.528 329.176 134.632C327.205 134.736 325.618 134.708 324.416 134.547L321.591 133.711C322.781 128.915 323.658 124.413 324.219 120.205C324.789 115.937 324.945 112.93 324.689 111.182C324.501 109.383 323.445 108.355 321.522 108.098C319.598 107.841 317.847 108.587 316.268 110.334C314.689 112.081 313.831 113.465 313.695 114.487L313.442 116.38L312.256 125.95C311.47 131.841 310.937 134.92 310.656 135.189C308.961 136.431 305.709 136.731 300.9 136.089C300.419 136.025 300.191 135.902 300.215 135.722C300.981 133.194 301.781 128.804 302.615 122.552ZM395.679 125.888C394.676 133.402 394.18 137.802 394.192 139.088C394.232 142.459 394.937 144.969 396.307 146.62C396.219 147.282 394.884 148.113 392.303 149.115C389.783 150.124 387.561 150.5 385.637 150.244C385.096 150.172 384.633 149.284 384.249 147.581C383.856 145.938 383.652 144.717 383.636 143.92C383.68 143.13 383.672 142.732 383.612 142.724L383.318 142.868C379.795 144.967 375.9 145.732 371.632 145.162C367.364 144.593 364.195 143.13 362.123 140.773C360.12 138.364 359.343 135.477 359.792 132.111C360.241 128.745 361.34 126.016 363.087 123.924C364.903 121.781 366.883 120.24 369.027 119.303C371.171 118.365 373.493 117.696 375.994 117.296C379.821 116.583 382.786 116.367 384.89 116.648L385.083 116.582C385.476 113.636 381.946 111.666 374.492 110.671C371.547 110.278 369.337 110.106 367.862 110.154L367.772 110.142C367.932 108.939 368.493 107.485 369.455 105.778C370.477 104.079 371.265 102.991 371.818 102.514C372.431 102.045 374.631 102.064 378.418 102.569C385.271 103.484 390.143 105.48 393.036 108.558C395.937 111.576 397.023 115.82 396.293 121.29L395.679 125.888ZM384.9 130.323L385.358 126.897C385.534 125.574 385.592 124.909 385.532 124.901C381.505 124.364 377.878 124.95 374.652 126.661C372.612 127.735 371.46 129.263 371.195 131.247C371.027 132.509 371.337 133.621 372.126 134.583C372.916 135.545 374.212 136.146 376.015 136.387C377.879 136.636 379.724 136.331 381.552 135.474C383.439 134.625 384.555 132.908 384.9 130.323ZM415.808 128.391L415.453 131.74L414.538 138.592C413.68 145.024 413.114 148.344 412.842 148.552C411.956 149.229 410.524 149.65 408.544 149.814C406.564 149.978 404.943 149.976 403.681 149.807C402.479 149.647 401.89 149.476 401.914 149.296C402.696 146.647 403.5 142.227 404.326 136.036L406.763 115.713C407.261 111.986 407.68 109.993 408.02 109.732C408.77 109.159 409.988 108.741 411.675 108.476C413.37 108.152 414.909 108.082 416.292 108.267C417.734 108.459 418.436 108.706 418.395 109.006C418.023 110.425 417.74 111.855 417.547 113.298C417.355 114.741 417.349 115.474 417.529 115.498L417.824 115.354C418.18 114.973 418.699 114.522 419.381 114.001C420.07 113.42 421.445 112.747 423.504 111.982C425.632 111.165 427.568 110.873 429.311 111.105C431.115 111.346 432.573 111.877 433.687 112.699C434.869 113.469 435.791 114.356 436.452 115.362C437.113 116.368 437.602 117.749 437.918 119.504C438.294 121.267 438.537 122.89 438.645 124.373C438.753 125.856 438.736 127.811 438.596 130.24C438.335 133.57 437.863 137.79 437.181 142.899L435.503 153.412C435.447 153.833 434.403 154.091 432.371 154.187C430.331 154.343 428.71 154.341 427.508 154.18L424.593 153.332C425.916 148.003 426.915 142.813 427.588 137.764C428.27 132.655 428.449 128.794 428.125 126.181C427.809 123.508 426.659 122.039 424.675 121.774C422.692 121.51 420.997 121.834 419.59 122.748C418.243 123.669 417.317 124.647 416.812 125.681L415.977 127.129L415.808 128.391Z" fill="white"/>
<path d="M714.478 136.503C713.532 136.254 712.428 136.046 711.166 135.877C709.964 135.717 708.445 135.637 706.61 135.636C704.834 135.644 702.949 135.79 700.953 136.074C699.025 136.307 697.388 136.883 696.042 137.805C694.695 138.726 693.918 139.969 693.709 141.531C693.508 143.034 694.23 144.507 695.872 145.95C697.583 147.341 699.663 148.719 702.111 150.086C704.568 151.393 707.004 152.85 709.42 154.457C711.896 156.073 713.872 158.233 715.346 160.938C716.889 163.591 717.431 166.631 716.974 170.057C716.164 176.128 712.558 180.908 706.158 184.398C699.826 187.835 692.242 188.964 683.406 187.785C678.958 187.191 675.684 186.51 673.584 185.74C673.115 185.127 673.274 181.875 674.06 175.984C674.855 170.033 675.452 166.473 675.853 165.303C676.106 164.786 677.246 164.265 679.273 163.74C681.301 163.216 683.217 163.074 685.02 163.314C684.073 170.407 684.251 174.805 685.553 176.509C686.074 177.19 687.176 177.643 688.859 177.868C692.706 178.381 696.187 177.744 699.301 175.957C702.475 174.179 704.258 171.817 704.651 168.871C704.916 166.888 704.217 165.02 702.554 163.269C700.892 161.517 698.78 159.92 696.219 158.477C693.727 156.982 691.239 155.457 688.754 153.901C686.278 152.286 684.252 150.272 682.678 147.86C681.103 145.447 680.513 142.768 680.906 139.823C681.491 135.435 684.64 131.786 690.351 128.878C696.13 125.917 704.008 125.103 713.986 126.434C716.331 126.747 717.633 127.074 717.893 127.415C717.929 127.603 717.899 128.058 717.803 128.779C717.715 129.44 717.328 130.735 716.642 132.662C715.957 134.59 715.235 135.87 714.478 136.503ZM755.623 173.931C754.621 181.444 754.125 185.845 754.137 187.131C754.177 190.501 754.882 193.012 756.252 194.663C756.164 195.324 754.829 196.156 752.248 197.157C749.727 198.167 747.505 198.543 745.582 198.286C745.041 198.214 744.578 197.326 744.194 195.623C743.801 193.98 743.597 192.76 743.581 191.962C743.625 191.173 743.617 190.774 743.557 190.766L743.262 190.91C739.74 193.01 735.844 193.775 731.577 193.205C727.309 192.635 724.139 191.172 722.068 188.816C720.064 186.407 719.287 183.52 719.737 180.153C720.186 176.787 721.284 174.058 723.032 171.967C724.847 169.823 726.827 168.283 728.971 167.345C731.115 166.408 733.438 165.739 735.938 165.338C739.766 164.626 742.731 164.41 744.835 164.69L745.027 164.624C745.42 161.679 741.89 159.709 734.437 158.714C731.491 158.321 729.281 158.148 727.806 158.196L727.716 158.184C727.877 156.982 728.438 155.527 729.4 153.82C730.422 152.121 731.21 151.033 731.763 150.557C732.376 150.088 734.576 150.106 738.363 150.612C745.215 151.526 750.088 153.523 752.981 156.601C755.882 159.619 756.967 163.862 756.237 169.332L755.623 173.931ZM744.845 178.366L745.302 174.939C745.479 173.617 745.537 172.952 745.477 172.944C741.45 172.406 737.823 172.993 734.597 174.703C732.557 175.777 731.404 177.306 731.14 179.289C730.971 180.552 731.282 181.664 732.071 182.626C732.86 183.587 734.157 184.189 735.96 184.429C737.823 184.678 739.669 184.374 741.496 183.517C743.384 182.667 744.5 180.95 744.845 178.366ZM776.831 161.803L772.468 197.929C772.155 200.273 771.898 201.738 771.698 202.323C769.189 203.701 766.041 204.137 762.254 203.632L759.79 202.844C761.582 196.292 763.678 184.03 766.077 166.057C766.678 161.549 767.089 158.239 767.31 156.127L763.319 155.778C763.058 155.437 763.085 154.095 763.398 151.751C763.71 149.406 764.173 148 764.787 147.531C765.877 147.615 767.057 147.712 768.327 147.82L769.603 136.886C769.611 135.908 772.048 134.612 776.913 132.998C781.778 131.384 785.653 130.769 788.539 131.154C788.899 131.202 789.258 131.954 789.614 133.408C790.039 134.811 790.199 135.903 790.095 136.684C789.998 137.406 789.908 137.853 789.824 138.025C789.644 138.001 788.818 138.227 787.347 138.704C785.885 139.12 784.334 139.739 782.695 140.561C781.063 141.322 780.17 142.059 780.013 142.772C779.564 144.303 779.099 146.413 778.618 149.102L778.979 149.15C783.847 149.8 786.27 150.215 786.246 150.395C785.869 153.22 784.985 155.488 783.594 157.199C783.077 157.864 782.668 158.177 782.368 158.137C780.46 157.76 778.815 157.479 777.433 157.295L776.831 161.803ZM812.061 172.745C812.293 171.002 811.478 170.006 809.614 169.758C807.15 169.429 804.818 170.402 802.617 172.678C800.417 174.954 799.08 177.865 798.607 181.411C798.494 182.253 798.558 182.69 798.799 182.722C800.971 182.951 803.63 182.051 806.776 180.024C809.93 177.937 811.692 175.51 812.061 172.745ZM816.078 202.465C813.85 203.574 809.76 203.732 803.809 202.938C797.858 202.143 793.527 199.761 790.814 195.789C788.102 191.817 787.139 186.886 787.925 180.995C788.719 175.044 791.299 170.158 795.663 166.335C800.096 162.461 805.769 160.985 812.681 161.908C815.506 162.285 817.991 163.381 820.134 165.197C822.338 167.02 823.187 169.825 822.682 173.612C822.185 177.339 820.038 180.815 816.243 184.041C812.507 187.274 807.686 189.476 801.779 190.645C801.683 191.366 802.324 192.064 803.703 192.737C805.149 193.358 806.594 193.765 808.036 193.958C812.605 194.568 816.32 194.237 819.181 192.967C819.249 192.915 819.343 192.897 819.463 192.913C819.584 192.929 819.568 193.509 819.415 194.651C818.95 198.137 817.837 200.742 816.078 202.465ZM843.985 146.08C843.68 147.446 843.024 151.213 842.017 157.38C846.526 157.982 848.768 158.373 848.744 158.553C848.471 160.597 847.926 162.39 847.108 163.933C846.298 165.416 845.623 166.121 845.082 166.049L840.844 165.483C839.537 174.363 838.51 181.598 837.764 187.188C837.025 192.718 836.622 196.427 836.554 198.315C836.497 201.489 837.389 204.208 839.228 206.472C839.139 207.133 837.839 207.939 835.326 208.888C832.874 209.845 830.625 210.188 828.582 209.915C828.401 209.891 828.081 209.542 827.62 208.869C827.219 208.204 826.811 207.14 826.394 205.677C826.038 204.222 825.858 202.822 825.854 201.475C825.91 200.137 826.48 195.41 827.563 187.295C828.646 179.18 829.759 171.529 830.902 164.339L825.841 163.756C825.58 163.415 825.603 162.103 825.908 159.818C826.22 157.474 826.679 156.098 827.285 155.689C828.615 155.805 830.216 155.958 832.087 156.147C832.553 152.66 832.763 150.394 832.719 149.348C832.676 148.302 832.666 147.689 832.69 147.509C832.77 146.908 833.884 146.353 836.032 145.844C838.24 145.344 840.126 145.198 841.688 145.406C843.251 145.615 844.017 145.839 843.985 146.08ZM881.334 185.57L878.223 209.566C877.597 214.255 876.408 218.348 874.657 221.846C872.965 225.352 871.085 227.977 869.017 229.72C867.009 231.471 864.779 232.825 862.326 233.782C858.319 235.389 854.392 235.935 850.545 235.422C850.364 235.398 850.064 234.899 849.643 233.925C849.222 232.951 848.876 231.651 848.604 230.024C848.323 228.457 848.272 227.012 848.448 225.69C850.732 225.995 853.076 225.849 855.481 225.252C857.877 224.715 859.595 223.996 860.633 223.095C861.663 222.253 862.729 221.141 863.831 219.759C866.088 217.062 867.657 212.408 868.54 205.796L868.798 203.169C868.847 202.808 868.811 202.62 868.69 202.604C868.57 202.588 868.438 202.662 868.294 202.826C868.149 202.991 867.967 203.211 867.746 203.487C867.534 203.704 867.019 204.125 866.201 204.75C865.452 205.323 864.65 205.827 863.797 206.264C861.5 207.426 859.27 207.862 857.106 207.574C855.003 207.293 853.356 206.798 852.165 206.088C851.036 205.387 850.106 204.559 849.377 203.605C848.708 202.659 848.203 201.399 847.862 199.824C847.53 198.189 847.302 196.69 847.178 195.328C847.054 193.965 847.084 192.134 847.269 189.834C847.453 186.616 847.774 183.294 848.232 179.867C848.866 175.119 849.624 171.274 850.506 168.333L850.945 167.106C851.001 166.686 851.958 166.385 853.818 166.205C855.737 166.033 857.298 166.027 858.501 166.188L861.326 167.024C859.87 172.886 858.87 177.861 858.324 181.949C857.779 186.036 857.746 189.488 858.226 192.306C858.707 195.123 859.939 196.664 861.923 196.929C863.906 197.193 865.545 196.831 866.84 195.841C868.202 194.8 869.11 193.728 869.563 192.626L870.243 190.973C870.628 187.17 871.109 183.104 871.687 178.777C872.273 174.389 872.736 172.064 873.077 171.804C873.962 171.127 875.395 170.706 877.375 170.542C879.414 170.386 881.035 170.388 882.238 170.549C883.44 170.709 884.029 170.88 884.005 171.06C883.147 173.821 882.257 178.658 881.334 185.57Z" fill="white"/>
<path d="M1158.9 258.591C1158.93 258.78 1158.89 259.355 1158.76 260.317C1158.63 261.278 1158.1 262.707 1157.18 264.602C1156.3 266.566 1155.56 267.752 1154.96 268.16C1154.74 268.437 1153.75 268.519 1151.99 268.406C1146.52 267.676 1141.66 266.233 1137.42 264.077C1133.24 261.928 1129.88 259.369 1127.34 256.399C1124.86 253.497 1122.85 250.201 1121.32 246.51C1118.57 239.657 1117.73 232.203 1118.8 224.149C1119.8 216.635 1122.88 209.643 1128.02 203.171C1130.76 199.621 1133.92 196.556 1137.51 193.976C1141.16 191.403 1145.6 189.519 1150.84 188.321C1156.14 187.072 1161.8 186.848 1167.81 187.65C1173.88 188.46 1179.21 190.058 1183.78 192.443C1188.36 194.828 1191.94 197.57 1194.53 200.668C1197.17 203.774 1199.25 207.232 1200.76 211.044C1203.38 218.001 1204.19 225.206 1203.19 232.66C1202.25 239.753 1199.52 246.18 1195.02 251.942C1192.8 254.827 1190 257.023 1186.62 258.529C1183.23 260.095 1179.58 260.618 1175.67 260.096C1172.37 259.655 1169.57 258.15 1167.28 255.581C1165.27 253.232 1164.42 249.968 1164.73 245.789C1164.75 245.668 1164.73 245.604 1164.67 245.596C1164.61 245.588 1164.51 245.636 1164.37 245.74C1160.85 247.84 1156.96 248.605 1152.69 248.035C1148.42 247.465 1145.25 246.002 1143.18 243.646C1141.17 241.297 1140.39 238.44 1140.84 235.074C1141.28 231.708 1142.38 228.979 1144.13 226.887C1145.95 224.743 1147.93 223.203 1150.07 222.265C1152.27 221.336 1154.6 220.637 1157.05 220.168C1160.82 219.448 1163.81 219.236 1166.04 219.533L1166.14 219.454C1166.53 216.509 1163 214.539 1155.55 213.544C1152.6 213.151 1150.39 212.978 1148.92 213.026L1148.83 213.014C1148.99 211.812 1149.58 210.361 1150.6 208.662C1151.63 206.903 1152.49 205.763 1153.17 205.243C1153.19 205.062 1153.93 205.008 1155.39 205.081C1156.85 205.153 1158.21 205.273 1159.47 205.442C1166.39 206.364 1171.29 208.395 1174.17 211.533C1177.06 214.611 1178.13 218.975 1177.38 224.625L1176.98 226.958C1176.31 231.518 1175.77 235.301 1175.37 238.306C1174.97 241.312 1174.75 243.424 1174.71 244.642C1174.65 248.305 1176.12 250.337 1179.12 250.738C1181.17 251.01 1183.04 250.526 1184.73 249.284C1186.49 248.05 1187.91 246.343 1188.99 244.163C1191.02 239.967 1192.3 235.916 1192.82 232.009C1194.22 221.49 1192.42 213.204 1187.42 207.153C1182.48 201.049 1175.57 197.403 1166.67 196.216C1160.96 195.454 1155.47 196.036 1150.19 197.963C1144.92 199.89 1140.34 203.255 1136.46 208.059C1132.57 212.864 1130.17 218.722 1129.25 225.635C1128 235.012 1130.07 242.875 1135.46 249.223C1137.37 251.435 1139.92 253.367 1143.13 255.019C1146.33 256.67 1149.5 257.704 1152.63 258.122C1155.75 258.539 1157.84 258.695 1158.9 258.591ZM1152.25 234.119C1152.08 235.382 1152.39 236.494 1153.18 237.456C1153.97 238.418 1155.09 238.995 1156.53 239.187C1158.03 239.388 1159.32 239.406 1160.38 239.242C1161.5 239.086 1162.65 238.505 1163.82 237.499C1165 236.494 1165.7 235.089 1165.94 233.286L1166.4 229.86C1166.58 228.537 1166.64 227.872 1166.58 227.864C1164.17 227.543 1161.84 227.629 1159.57 228.121C1155.08 229.175 1152.64 231.174 1152.25 234.119ZM1243.08 228.348C1250.26 228.633 1255.68 227.674 1259.34 225.471C1263.07 223.215 1265.11 220.795 1265.45 218.21C1265.8 215.565 1264.77 213.469 1262.34 211.922C1259.93 210.315 1256.74 209.246 1252.77 208.717C1250.67 208.436 1248.51 208.332 1246.3 208.403C1245.59 210.94 1244.52 217.588 1243.08 228.348ZM1239.92 259.587C1239.17 260.16 1237.78 260.494 1235.75 260.59C1233.71 260.746 1232.03 260.736 1230.71 260.559C1229.39 260.383 1228.27 260.05 1227.35 259.561L1234.84 207.608C1234.19 206.542 1233.62 204.845 1233.13 202.517C1232.71 200.197 1232.53 198.796 1232.59 198.315C1232.66 197.774 1232.77 197.452 1232.9 197.347C1233.05 197.183 1234.97 197.255 1238.66 197.565C1242.42 197.822 1246.19 198.203 1249.98 198.708C1253.76 199.214 1257.1 199.873 1259.99 200.687C1262.88 201.501 1265.84 202.662 1268.89 204.169C1271.94 205.616 1274.24 207.606 1275.8 210.139C1277.36 212.672 1277.89 215.741 1277.41 219.348C1276.94 222.894 1275.24 226.032 1272.3 228.76C1269.37 231.489 1265.6 233.616 1260.99 235.143C1260.86 236.104 1262.18 240.685 1264.94 248.884C1267.7 257.024 1270.05 262.354 1271.98 264.875C1272.03 264.943 1272.05 265.037 1272.03 265.157C1272.01 265.338 1271.49 265.574 1270.47 265.866C1267.66 266.776 1264.72 267.026 1261.65 266.617L1259.42 266.135C1258.28 264.636 1256.55 259.94 1254.24 252.045C1251.99 244.158 1250.79 239.349 1250.66 237.618C1249.88 237.942 1246.94 238.192 1241.84 238.368C1240.34 250.466 1239.71 257.539 1239.92 259.587ZM1300.33 263.612L1300.5 261.707L1300.43 261.514C1298.69 263.546 1296.62 265.074 1294.22 266.1C1291.88 267.133 1289.66 267.51 1287.55 267.229C1281.24 266.387 1278.29 261.006 1278.7 251.088C1278.79 249.509 1279.26 245.474 1280.13 238.982C1281 232.49 1281.78 228.679 1282.48 227.549C1284.21 226.496 1286.82 226.201 1290.31 226.667C1291.69 226.851 1292.51 227.114 1292.77 227.455C1292.76 227.515 1292.63 228.322 1292.36 229.877C1291.45 234.405 1290.83 237.902 1290.5 240.366C1290.17 242.83 1289.95 244.668 1289.85 245.878C1289.76 247.028 1289.69 247.784 1289.64 248.144C1289.66 248.453 1289.68 249.036 1289.69 249.893C1289.75 250.759 1289.9 251.512 1290.12 252.154C1290.79 254.017 1292.05 255.073 1293.92 255.322C1295.84 255.579 1297.65 254.872 1299.34 253.201C1301.1 251.478 1302 250.222 1302.04 249.432L1302.45 246.367C1303.92 235.367 1304.89 229.47 1305.36 228.677C1305.74 228.176 1306.75 227.729 1308.39 227.336C1310.09 226.952 1311.72 226.864 1313.29 227.073C1314.85 227.281 1315.74 227.522 1315.94 227.794L1315.2 232.008C1313.69 240.555 1312.62 247.174 1312 251.862C1311.37 256.551 1311.1 259.542 1311.17 260.836C1311.19 263.898 1311.68 266.411 1312.64 268.374C1312.56 268.976 1311.2 269.773 1308.56 270.766C1305.92 271.76 1303.72 272.14 1301.98 271.908C1301.5 271.843 1301.08 270.87 1300.72 268.986C1300.36 267.102 1300.23 265.311 1300.33 263.612ZM1338.24 212.049C1337.93 213.415 1337.28 217.182 1336.27 223.349C1340.78 223.951 1343.02 224.342 1343 224.522C1342.72 226.566 1342.18 228.359 1341.36 229.902C1340.55 231.385 1339.88 232.09 1339.34 232.018L1335.1 231.452C1333.79 240.332 1332.76 247.567 1332.02 253.158C1331.28 258.688 1330.88 262.396 1330.81 264.284C1330.75 267.458 1331.64 270.177 1333.48 272.441C1333.39 273.102 1332.09 273.908 1329.58 274.857C1327.13 275.815 1324.88 276.157 1322.84 275.884C1322.66 275.86 1322.33 275.511 1321.87 274.838C1321.47 274.173 1321.06 273.109 1320.65 271.646C1320.29 270.191 1320.11 268.791 1320.11 267.444C1320.16 266.106 1320.73 261.379 1321.82 253.264C1322.9 245.15 1324.01 237.498 1325.16 230.309L1320.09 229.725C1319.83 229.384 1319.86 228.072 1320.16 225.788C1320.47 223.443 1320.93 222.067 1321.54 221.658C1322.87 221.775 1324.47 221.927 1326.34 222.116C1326.81 218.629 1327.02 216.363 1326.97 215.317C1326.93 214.271 1326.92 213.658 1326.94 213.478C1327.02 212.877 1328.14 212.322 1330.29 211.813C1332.49 211.313 1334.38 211.167 1335.94 211.375C1337.5 211.584 1338.27 211.808 1338.24 212.049ZM1378.79 258.483C1378.03 264.193 1375.62 268.919 1371.58 272.662C1367.6 276.352 1362.63 277.8 1356.68 277.006C1350.79 276.22 1346.4 273.768 1343.53 269.652C1340.65 265.537 1339.6 260.563 1340.38 254.733C1341.17 248.842 1343.93 243.919 1348.68 239.965C1353.5 235.958 1359.46 234.428 1366.55 235.375C1369.42 235.88 1370.96 236.269 1371.17 236.541C1371.37 236.814 1371.42 237.401 1371.3 238.303C1371.18 239.204 1370.95 240.184 1370.63 241.242C1371.53 241.362 1372.6 242.056 1373.84 243.322C1375.15 244.537 1376.18 245.745 1376.93 246.947C1377.69 248.15 1378.27 249.787 1378.67 251.858C1379.07 253.87 1379.11 256.078 1378.79 258.483ZM1366.47 250.414C1365.21 249.328 1363.91 248.697 1362.59 248.52L1361.87 248.424C1361.78 248.167 1361.79 247.648 1361.9 246.867C1362 246.086 1362.19 245.346 1362.47 244.649C1360 244.32 1357.54 245.123 1355.08 247.058C1352.68 249.002 1351.21 251.957 1350.68 255.924C1350.06 260.613 1351.13 264.059 1353.89 266.264C1354.94 267.137 1356.45 267.707 1358.44 267.971C1360.48 268.244 1362.5 267.565 1364.49 265.934C1366.54 264.312 1367.81 261.667 1368.3 258C1368.79 254.334 1368.18 251.805 1366.47 250.414ZM1385.24 265.401L1389.96 232.81C1390.59 228.061 1390.96 224.837 1391.07 223.138C1391.17 221.439 1391.23 220.529 1391.25 220.409C1391.33 219.808 1392.41 219.249 1394.5 218.732C1396.65 218.224 1398.5 218.074 1400.07 218.282C1401.63 218.491 1402.4 218.715 1402.36 218.956C1401.77 221.14 1400.57 228.934 1398.78 242.338L1395.65 264.404C1395.1 268.552 1394.82 271.115 1394.81 272.092C1394.76 274.777 1395.31 277.298 1396.46 279.655C1396.38 280.256 1395.02 281.053 1392.38 282.046C1389.74 283.04 1387.55 283.42 1385.81 283.188C1385.32 283.123 1384.9 282.15 1384.54 280.266C1384.18 278.383 1384.03 276.772 1384.09 275.433C1384.14 274.095 1384.53 270.751 1385.24 265.401ZM1428.26 254.991C1428.5 253.248 1427.68 252.252 1425.82 252.004C1423.35 251.675 1421.02 252.648 1418.82 254.924C1416.62 257.2 1415.28 260.111 1414.81 263.657C1414.7 264.499 1414.76 264.936 1415 264.968C1417.17 265.197 1419.83 264.297 1422.98 262.27C1426.13 260.183 1427.9 257.756 1428.26 254.991ZM1432.28 284.711C1430.05 285.82 1425.96 285.978 1420.01 285.184C1414.06 284.389 1409.73 282.006 1407.02 278.035C1404.31 274.063 1403.34 269.132 1404.13 263.241C1404.92 257.29 1407.5 252.404 1411.87 248.581C1416.3 244.707 1421.97 243.231 1428.89 244.153C1431.71 244.531 1434.19 245.627 1436.34 247.443C1438.54 249.266 1439.39 252.071 1438.89 255.858C1438.39 259.585 1436.24 263.061 1432.45 266.287C1428.71 269.52 1423.89 271.721 1417.98 272.891C1417.89 273.612 1418.53 274.31 1419.91 274.983C1421.35 275.604 1422.8 276.011 1424.24 276.204C1428.81 276.814 1432.52 276.483 1435.39 275.213C1435.45 275.161 1435.55 275.143 1435.67 275.159C1435.79 275.175 1435.77 275.755 1435.62 276.897C1435.15 280.383 1434.04 282.988 1432.28 284.711Z" fill="white"/>
<path d="M583.526 160.466C580.943 179.818 562.893 193.428 543.156 190.793C523.418 188.159 509.569 170.291 512.152 150.939C514.735 131.587 532.785 117.977 552.523 120.611C572.261 123.246 586.109 141.113 583.526 160.466Z" stroke="#B9C628" stroke-width="3.79015"/>
<path d="M587.473 130.891C584.89 150.243 566.841 163.853 547.103 161.219C527.365 158.584 513.516 140.717 516.099 121.365C518.682 102.013 536.732 88.4024 556.47 91.0369C576.208 93.6713 590.056 111.539 587.473 130.891Z" stroke="#B9C628" stroke-width="3.79015"/>
<path d="M544.628 179.765C566.383 182.668 586.389 167.665 589.256 146.181C592.124 124.698 576.753 104.973 554.998 102.069C533.242 99.1651 513.236 114.169 510.369 135.652C507.501 157.135 522.872 176.861 544.628 179.765Z" fill="#181FC6" stroke="white" stroke-width="3.79015"/>
<rect x="66.1508" y="40.6104" width="64.4275" height="70.8649" rx="15.1606" transform="rotate(7.6024 66.1508 40.6104)" fill="#B9C628"/>
<path d="M1047.55 207.348C1044.97 226.7 1026.92 240.31 1007.18 237.676C987.446 235.041 973.598 217.174 976.181 197.821C978.764 178.469 996.814 164.859 1016.55 167.494C1036.29 170.128 1050.14 187.996 1047.55 207.348Z" stroke="#9747FF" stroke-width="3.79015"/>
</g>
<defs>
<clipPath id="clip0_68_1440">
<rect width="1567" height="347" fill="white"/>
</clipPath>
</defs>
</svg>
